<svg xmlns="http://www.w3.org/2000/svg" width="430" height="220" viewBox="0 0 430 220" fill="none">
  <g clip-path="url(#a)">
    <path fill="#5E3D59" d="M58.408 72.236c.055-2.393.113-4.764.175-7.115.097-2.4.159-4.75.187-7.051.188-8.265.143-16.142-.138-23.632a8.223 8.223 0 0 0-1.472.13 8.479 8.479 0 0 0-1.45.256 7.231 7.231 0 0 1-3.029.144 8.767 8.767 0 0 0-.125-1.083l-.223-1.26L52.1 31.3a13.534 13.534 0 0 1-.17-1.334c-.04-.47-.104-.957-.193-1.461a21.697 21.697 0 0 1-.226-1.65 87.009 87.009 0 0 0 6.6-.904c3.109-.548 6.053-1.176 8.83-1.882 2.82-.714 5.403-1.429 7.746-2.146l-.093 3.526-.045 3.063a40.175 40.175 0 0 1-.112 2.684 15.974 15.974 0 0 1-2.684.993c-.455.123-.927.272-1.416.445l-1.343.496c-.082 3.22-.133 6.003-.153 8.346.022 2.335.05 4.583.085 6.744.068 2.11.111 4.442.128 6.995.034 4.37.163 8.788.388 13.255l-11.034 3.765Zm18.371-3.175c.035-2.995.057-5.945.065-8.85.042-2.953.088-5.886.138-8.797-.027-3.591-.058-6.965-.095-10.121.005-3.164-.007-6.303-.036-9.417.013-3.122-.021-6.387-.102-9.795l10.088-2.494c-.196 3.067-.37 6.26-.52 9.58a625.97 625.97 0 0 0-.246 9.662l6.117-1.794c.035-1.522.052-3.02.053-4.493a87.28 87.28 0 0 0-.01-4.483 82.754 82.754 0 0 1 .01-4.356c.078-1.53.175-3.063.294-4.6a55.844 55.844 0 0 1 4.501-1.38 60.433 60.433 0 0 1 3.853-1.003l1.553-.404c-.25 1.777-.448 3.848-.594 6.213a193.527 193.527 0 0 0-.309 7.463c-.06 2.61-.098 5.216-.116 7.82-.025 2.56-.038 4.945-.038 7.155.012 2.77.049 5.558.11 8.363.054 2.764.119 5.59.195 8.48l-9.632 2.867c.072-1.312.106-2.596.1-3.852.03-1.305.047-2.564.05-3.777.064-2.091.114-4.266.149-6.525.077-2.267.104-4.2.082-5.799l-6.014 1.646a96.801 96.801 0 0 0-.048 2.672c.037.947.043 1.964.018 3.052a405.26 405.26 0 0 1-.086 3.2l.007 2.987a99.234 99.234 0 0 1-.093 3.526 99.228 99.228 0 0 0-.093 3.526l-9.35 3.728Zm28.439-5.08.355-46.268 19.616-5.213a31.861 31.861 0 0 0-.256 2.97c-.069.835-.131 1.712-.186 2.632-.019.87-.033 1.652-.041 2.346-.538.139-1.308.318-2.309.537-1.009.178-2.035.38-3.078.608l-2.71.478-1.197.211-.217 11.671 3.622-.834c.455-.123.913-.226 1.376-.307a84230.508 84230.508 0 0 0 2.71-.478c.378-.067.668-.14.871-.219l.059 1.81c.055.553.092 1.132.111 1.735l.044 3.566a4.38 4.38 0 0 1-.808.208c-.336.059-.735.13-1.198.21-.454.125-.934.23-1.438.32-.504.089-.984.195-1.439.318-.538.139-1.102.26-1.69.363-.589.104-1.215.236-1.88.397l-.098 11.975 8.946-3.073.637 7.297-19.802 6.74ZM55.676 208.889c-4.201.741-8.598.379-13.188-1.086-4.61-1.57-9.293-4.481-14.05-8.733l7.631-24.904c1.508 1.792 3.522 3.387 6.043 4.784 2.625 1.378 5.292 2.37 7.998 2.976 2.706.606 4.952.751 6.738.436 2.731-.481 5.157-1.775 7.276-3.882 2.225-2.125 3.088-4.606 2.587-7.442-.648-3.677-2.921-6.742-6.82-9.196-3.899-2.453-8.208-4.78-12.929-6.981a79.637 79.637 0 0 1-13.095-7.926c-4.028-3.189-6.468-7.2-7.32-12.032-.964-5.462-.277-10.782 2.06-15.96 2.317-5.283 5.692-10.102 10.123-14.457 4.412-4.461 9.288-8.137 14.627-11.028 5.426-3.015 10.712-4.976 15.86-5.883 3.676-.649 7.201-.62 10.575.085 3.355.6 6.219 2.098 8.591 4.496 2.372 2.398 3.966 5.908 4.781 10.53.13.735.207 1.48.231 2.234.13.735.207 1.479.232 2.233.025.754.006 1.57-.056 2.447.025.754.058 1.56.102 2.419l-21.681 10.647c.062-.878.071-1.746.028-2.605.062-.877.019-1.736-.13-2.576-.555-3.152-1.531-5.308-2.927-6.47-1.31-1.286-2.858-1.771-4.644-1.456-.945.167-2.218.933-3.819 2.298-1.619 1.26-3.006 2.913-4.162 4.958-1.07 1.922-1.419 3.933-1.048 6.034.611 3.466 2.539 6.105 5.782 7.916 3.33 1.687 7.09 3.353 11.28 4.997 1.97.736 4.263 2.065 6.876 3.987 2.595 1.817 5.023 4.53 7.284 8.139 2.348 3.485 4.05 8.221 5.105 14.209 1.37 7.773.632 14.944-2.218 21.512-2.744 6.549-7.077 12.079-12.997 16.589-5.938 4.405-12.847 7.302-20.726 8.691Zm48.853-8.289-7.75-113.986a152.795 152.795 0 0 0 7.006-1.723 121.868 121.868 0 0 0 6.739-2.325 64.724 64.724 0 0 1 6.294-2.085 71.629 71.629 0 0 1 6.349-1.77l.083 3.235c.08 1.07.083 2.314.009 3.736.012 1.297.061 2.805.147 4.523.123 3.769.234 8.082.332 12.939.098 4.856.184 10.257.257 16.201 0 3.683.024 8.119.073 13.31.153 5.172.27 11.054.349 17.647l2.364-.417c.513-5.073.996-9.707 1.448-13.902.451-4.196.829-7.891 1.132-11.085.303-3.195.61-6.065.919-8.611.396-2.669.68-5.048.854-7.136.835-8.163 1.5-14.833 1.995-20.01.495-5.179.823-8.54.984-10.085l1.418-.25c2.731-.482 5.53-1.192 8.398-2.13 2.972-.958 5.62-1.912 7.943-2.863-.031.438.065 2.209.287 5.31.222 3.102.512 6.896.869 11.382.358 4.486.744 9.13 1.157 13.931.839 9.059 1.527 16.953 2.064 23.682.641 6.71 1.113 12.151 1.416 16.322l2.836-.5 3.022-70.395 10.307-3.28c1.434-.469 2.92-.947 4.458-1.435 1.539-.488 3.13-.985 4.774-1.492 2.972-.957 5.777-1.94 8.416-2.946-1.595 9.38-2.913 20.335-3.953 32.866a6012.204 6012.204 0 0 0-3.036 38.065c-.495 7.02-.972 14.144-1.43 21.373-.372 7.106-.716 14.37-1.032 21.791l-34.555 12.266-3.792-62.044-1.89.333-5.514 59.949-31.747 11.609Zm88.665-16.447c.693-6.512 1.185-13.856 1.477-22.031.397-8.193.66-16.525.791-24.997.218-8.595.414-16.699.588-24.311.18-6.964.289-14.023.327-21.179.038-7.155.067-14.363.086-21.623l23.887-8.274c-.125 7.279-.259 14.505-.402 21.68l-.485 21.206c-.174 7.612-.326 15.654-.457 24.126a3206.43 3206.43 0 0 0-.291 25.071c-.082 8.138-.151 15.732-.207 22.782-1.891.333-4.227.908-7.008 1.723-2.799.71-5.579 1.525-8.342 2.446-2.78.815-5.141 1.556-7.081 2.223-1.835.649-2.796 1.035-2.883 1.158Zm47.533-8.056c.137-5.981.283-11.91.438-17.786.242-6 .398-11.876.466-17.629.473-20.663.358-40.355-.344-59.078a20.547 20.547 0 0 0-3.679.324c-1.279.117-2.487.33-3.624.64a18.082 18.082 0 0 1-7.573.36 21.873 21.873 0 0 0-.315-2.707l-.555-3.151-.584-3.31a34.273 34.273 0 0 1-.426-3.336 40.51 40.51 0 0 0-.481-3.652 54.246 54.246 0 0 1-.565-4.125 217.439 217.439 0 0 0 16.498-2.259c7.774-1.37 15.133-2.939 22.079-4.705 7.05-1.785 13.505-3.573 19.363-5.364l-.233 8.814-.113 7.656c-.043 2.824-.136 5.06-.279 6.71-1.1.52-2.209.986-3.327 1.4a39.897 39.897 0 0 1-3.383 1.084c-1.137.308-2.318.68-3.541 1.111l-3.356 1.242c-.205 8.051-.332 15.006-.382 20.863.054 5.84.125 11.459.21 16.86.173 5.277.28 11.107.322 17.49.085 10.924.408 21.969.969 33.135l-27.585 9.413Zm69.341-12.064c-6.618 1.167-12.574-.978-17.868-6.435-5.295-5.457-8.896-13.595-10.804-24.415a107.228 107.228 0 0 1-1.043-29.873c1.027-10.145 3.333-19.488 6.918-28.027 3.585-8.539 8.331-15.712 14.239-21.52 5.995-5.93 13.089-9.618 21.282-11.063 5.148-.908 9.912.31 14.292 3.654 4.381 3.343 7.164 8.376 8.349 15.1l.333 1.89.195 1.103c.055.315.068.692.037 1.13l-19.669 9.156c-1.724-2.404-3.426-3.458-5.107-3.162-2.521.445-4.839 2.966-6.952 7.562-2.009 4.579-3.774 9.927-5.295 16.044a143.242 143.242 0 0 0-2.513 12.465c-.557 4.214-.898 8.119-1.022 11.716-.124 3.596.009 6.497.398 8.703.574 3.256 1.463 5.537 2.668 6.84.976 1.236 2.252 1.715 3.828 1.438 1.575-.278 3.179-1.319 4.811-3.123 1.613-1.909 3.003-4.158 4.171-6.747 1.274-2.608 1.969-5.113 2.087-7.517l19.241 4.081c-3.073 12.673-7.69 22.423-13.851 29.25-6.075 6.703-12.317 10.62-18.725 11.75Zm39.56-6.976c.088-7.489.141-14.863.161-22.124.106-7.384.221-14.715.346-21.994-.067-8.978-.146-17.412-.238-25.303.014-7.91-.016-15.757-.089-23.542a878.326 878.326 0 0 0-.256-24.488l25.22-6.234a1330.94 1330.94 0 0 0-1.301 23.95c-.273 8.28-.478 16.33-.615 24.153l15.294-4.483c.087-3.807.131-7.551.131-11.234.087-3.806.079-7.541-.026-11.205-.086-3.56-.076-7.19.03-10.891.192-3.825.436-7.659.733-11.502a139.775 139.775 0 0 1 11.253-3.447c3.812-1.105 7.023-1.942 9.63-2.51l3.884-1.01c-.625 4.443-1.12 9.62-1.485 15.534a479.846 479.846 0 0 0-.772 18.658c-.149 6.525-.246 13.04-.29 19.547-.063 6.401-.095 12.364-.095 17.888.03 6.927.121 13.897.275 20.91.135 6.908.298 13.974.488 21.197l-24.081 7.171c.18-3.281.264-6.491.252-9.63.075-3.263.115-6.411.122-9.445.161-5.227.285-10.665.373-16.312.192-5.666.261-10.498.206-14.496l-15.034 4.113c-.069 2.07-.109 4.297-.122 6.682.092 2.367.108 4.91.045 7.628a978.9 978.9 0 0 1-.214 7.999l.018 7.471a250.42 250.42 0 0 1-.233 8.814 245.737 245.737 0 0 0-.233 8.814l-23.377 9.321Z"/>
    <path fill="url(#b)" d="M51.484 200.187c-4.202.741-8.598.379-13.189-1.087-4.609-1.57-9.292-4.481-14.05-8.732l7.632-24.904c1.507 1.792 3.521 3.387 6.042 4.783 2.626 1.379 5.292 2.371 7.999 2.977 2.706.606 4.952.751 6.738.436 2.731-.481 5.157-1.775 7.276-3.882 2.225-2.126 3.087-4.606 2.587-7.443-.648-3.676-2.922-6.741-6.82-9.195-3.899-2.454-8.208-4.781-12.929-6.981a79.64 79.64 0 0 1-13.095-7.926c-4.029-3.189-6.469-7.2-7.32-12.032-.964-5.462-.277-10.782 2.06-15.96 2.317-5.283 5.691-10.102 10.122-14.458 4.413-4.46 9.289-8.136 14.628-11.027 5.425-3.015 10.712-4.976 15.859-5.883 3.677-.649 7.202-.62 10.575.084 3.356.6 6.22 2.099 8.592 4.497 2.372 2.398 3.966 5.908 4.78 10.53.13.735.208 1.48.232 2.233.13.736.207 1.48.232 2.234.024.754.006 1.57-.056 2.447.024.754.058 1.56.101 2.419L67.8 113.964c.062-.878.071-1.746.028-2.605a10.53 10.53 0 0 0-.13-2.577c-.555-3.151-1.531-5.308-2.927-6.469-1.31-1.286-2.858-1.771-4.644-1.456-.945.167-2.218.933-3.819 2.298-1.619 1.26-3.006 2.913-4.162 4.958-1.07 1.922-1.419 3.933-1.048 6.034.611 3.466 2.538 6.105 5.782 7.916 3.33 1.687 7.09 3.353 11.28 4.997 1.97.736 4.263 2.065 6.876 3.987 2.595 1.817 5.023 4.53 7.284 8.138 2.348 3.486 4.05 8.222 5.105 14.21 1.37 7.773.631 14.944-2.218 21.512-2.745 6.549-7.077 12.079-12.997 16.589-5.939 4.405-12.847 7.302-20.726 8.691Zm48.853-8.289L92.586 77.912a152.786 152.786 0 0 0 7.007-1.723c2.361-.741 4.607-1.516 6.739-2.326a64.732 64.732 0 0 1 6.293-2.084 71.743 71.743 0 0 1 6.35-1.77l.083 3.235c.08 1.07.083 2.314.008 3.735.012 1.298.062 2.806.148 4.523.123 3.77.234 8.083.332 12.94.098 4.856.184 10.257.257 16.201 0 3.683.024 8.119.072 13.31.154 5.171.271 11.054.35 17.647l2.364-.417c.513-5.073.996-9.707 1.448-13.902.451-4.196.829-7.891 1.132-11.086.303-3.194.609-6.064.919-8.61.395-2.669.68-5.048.853-7.137a3086 3086 0 0 0 1.996-20.01c.495-5.178.823-8.54.984-10.084l1.418-.25a61.108 61.108 0 0 0 8.397-2.13c2.973-.958 5.621-1.912 7.944-2.864-.031.44.065 2.21.287 5.311.222 3.102.511 6.896.869 11.382s.744 9.13 1.157 13.931c.839 9.059 1.527 16.952 2.063 23.681.642 6.711 1.114 12.152 1.416 16.323l2.837-.501 3.022-70.394 10.307-3.28c1.433-.469 2.919-.948 4.458-1.435 1.539-.488 3.13-.986 4.774-1.492 2.972-.957 5.777-1.94 8.416-2.946-1.596 9.38-2.913 20.335-3.953 32.865a6007.55 6007.55 0 0 0-3.036 38.066c-.496 7.019-.972 14.144-1.431 21.373-.371 7.106-.715 14.369-1.031 21.79l-34.555 12.267-3.792-62.044-1.891.333-5.513 59.948-31.747 11.61Zm88.665-16.447c.693-6.512 1.185-13.856 1.477-22.031.396-8.193.66-16.526.791-24.997.218-8.595.413-16.699.587-24.311.181-6.964.29-14.024.328-21.179.038-7.155.067-14.363.086-21.624l23.886-8.273c-.124 7.279-.258 14.505-.401 21.68l-.485 21.205c-.174 7.613-.327 15.655-.458 24.126-.131 8.472-.228 16.829-.29 25.072-.082 8.138-.151 15.732-.208 22.782-1.89.333-4.226.908-7.007 1.723-2.799.71-5.58 1.525-8.342 2.446-2.781.815-5.141 1.556-7.081 2.223-1.836.649-2.796 1.035-2.883 1.158Zm47.533-8.056c.137-5.982.283-11.91.438-17.787.242-5.999.397-11.876.466-17.628.473-20.663.358-40.355-.344-59.078a20.548 20.548 0 0 0-3.68.324c-1.279.117-2.487.33-3.624.639a18.076 18.076 0 0 1-7.572.36 21.875 21.875 0 0 0-.315-2.706l-.555-3.151-.584-3.31a33.67 33.67 0 0 1-.426-3.336 40.87 40.87 0 0 0-.481-3.652 54.246 54.246 0 0 1-.565-4.125 217.641 217.641 0 0 0 16.498-2.259c7.774-1.37 15.133-2.939 22.079-4.705 7.05-1.785 13.504-3.573 19.362-5.364l-.233 8.814-.112 7.656c-.044 2.824-.137 5.06-.279 6.71-1.1.52-2.209.986-3.327 1.4a39.918 39.918 0 0 1-3.384 1.084c-1.137.308-2.317.679-3.54 1.111l-3.356 1.242c-.205 8.051-.332 15.005-.383 20.863.055 5.84.125 11.459.211 16.86.172 5.277.28 11.107.322 17.49.085 10.924.408 21.969.969 33.135l-27.585 9.413Zm69.341-12.064c-6.618 1.166-12.574-.978-17.869-6.435-5.294-5.457-8.896-13.595-10.803-24.415a107.23 107.23 0 0 1-1.044-29.873c1.027-10.146 3.334-19.488 6.919-28.027 3.585-8.539 8.331-15.712 14.239-21.52 5.995-5.93 13.089-9.618 21.282-11.063 5.147-.908 9.911.31 14.292 3.654 4.38 3.343 7.163 8.376 8.349 15.1l.333 1.89.195 1.103c.055.315.067.692.037 1.13l-19.67 9.155c-1.723-2.404-3.425-3.457-5.106-3.161-2.521.445-4.839 2.965-6.953 7.562-2.008 4.579-3.773 9.926-5.294 16.043a143.589 143.589 0 0 0-2.514 12.466c-.556 4.214-.897 8.119-1.021 11.715-.124 3.597.008 6.498.397 8.704.575 3.256 1.464 5.536 2.669 6.84.976 1.236 2.252 1.715 3.828 1.437 1.575-.277 3.179-1.318 4.81-3.122 1.613-1.909 3.004-4.158 4.172-6.747 1.273-2.608 1.969-5.113 2.087-7.517l19.241 4.081c-3.073 12.673-7.69 22.423-13.852 29.25-6.075 6.703-12.316 10.62-18.724 11.75Zm39.56-6.976c.087-7.489.141-14.864.161-22.124.106-7.384.221-14.715.346-21.994-.067-8.978-.146-17.413-.238-25.303.014-7.91-.016-15.757-.089-23.542a882.206 882.206 0 0 0-.256-24.488l25.22-6.234c-.489 7.668-.923 15.651-1.301 23.95-.273 8.28-.478 16.33-.615 24.153l15.294-4.483c.087-3.807.131-7.551.131-11.234.087-3.806.078-7.541-.026-11.206-.086-3.559-.076-7.189.029-10.89.192-3.825.437-7.66.734-11.502a139.61 139.61 0 0 1 11.253-3.447c3.812-1.105 7.022-1.942 9.63-2.51l3.884-1.01c-.625 4.443-1.12 9.62-1.485 15.534a479.852 479.852 0 0 0-.772 18.657c-.15 6.526-.246 13.041-.29 19.548-.063 6.401-.095 12.364-.096 17.888.03 6.927.122 13.897.276 20.91.135 6.908.297 13.974.488 21.197l-24.081 7.171c.18-3.281.264-6.491.252-9.63.074-3.263.115-6.411.122-9.445.161-5.227.285-10.665.373-16.312.192-5.667.261-10.499.205-14.496l-15.034 4.113c-.068 2.07-.108 4.297-.121 6.682.092 2.367.107 4.91.045 7.628a978.9 978.9 0 0 1-.214 7.999l.017 7.47a245.792 245.792 0 0 1-.233 8.815 250.42 250.42 0 0 0-.233 8.814l-23.376 9.321Z"/>
    <path fill="#5E3D59" d="m38.295 199.1-.645 1.894.019.006.018.006.608-1.906Zm-14.05-8.732-1.912-.586-.375 1.224.955.853 1.332-1.491Zm7.632-24.904 1.53-1.287-2.365-2.813-1.077 3.514 1.912.586Zm6.042 4.783-.969 1.75.02.011.02.01.93-1.771Zm7.999 2.977-.437 1.951.437-1.951Zm14.014-3.446-1.381-1.446-.015.013-.014.014 1.41 1.419ZM55.7 153.14l1.065-1.693-1.065 1.693Zm-12.929-6.981-.867 1.803.011.005.011.005.845-1.813Zm-13.095-7.926-1.242 1.568.023.018.024.018 1.195-1.604Zm-5.26-27.992 1.822.823.004-.01.005-.01-1.832-.803Zm10.122-14.458 1.402 1.427.01-.01.01-.01-1.422-1.407Zm14.628-11.027.952 1.758.01-.005.01-.005-.972-1.748Zm26.434-5.799-.409 1.958.029.006.028.005.352-1.969Zm8.592 4.497 1.421-1.407-1.421 1.407Zm5.012 12.763-1.999.066.005.142.025.14 1.97-.348Zm.232 2.234 1.999-.065-2 .065Zm-.056 2.447-1.995-.141-.008.103.004.103 1.999-.065Zm.101 2.419.882 1.795 1.182-.58-.066-1.315-1.998.1ZM67.8 113.964l-1.995-.141-.245 3.469 3.121-1.533-.881-1.795Zm.028-2.605-1.995-.141-.009.121.006.12 1.998-.1Zm-3.058-9.046-1.4 1.427.058.058.063.052 1.28-1.537Zm-8.462.842 1.229 1.578.035-.027.034-.03-1.298-1.521Zm-4.162 4.958-1.741-.984-.007.012 1.748.972Zm4.734 13.95-.975 1.746.035.02.036.018.904-1.784Zm11.28 4.997-.731 1.862.015.006.016.006.7-1.874Zm6.876 3.987-1.185 1.611.019.014.019.013 1.147-1.638Zm7.284 8.138-1.695 1.062.018.028.018.028 1.659-1.118Zm2.887 35.722-1.835-.796-.005.011-.005.012 1.845.773ZM72.21 191.496l1.192 1.606.01-.008.01-.007-1.212-1.591Zm-20.726 8.691-.347-1.97c-3.844.678-7.911.358-12.234-1.022l-.608 1.905-.608 1.906c4.86 1.55 9.585 1.954 14.145 1.15l-.348-1.969ZM38.295 199.1l.645-1.893c-4.29-1.461-8.745-4.205-13.362-8.331l-1.333 1.492-1.332 1.491c4.898 4.378 9.809 7.456 14.737 9.135l.645-1.894Zm-14.05-8.732 1.913.585 7.631-24.903-1.912-.586-1.912-.586-7.632 24.904 1.912.586Zm7.632-24.904-1.53 1.287c1.696 2.017 3.916 3.757 6.603 5.246l.97-1.75.969-1.749c-2.355-1.305-4.163-2.754-5.482-4.321l-1.53 1.287Zm6.042 4.783-.93 1.771c2.772 1.455 5.603 2.511 8.492 3.157l.437-1.951.437-1.952c-2.524-.565-5.025-1.493-7.506-2.795l-.93 1.77Zm7.999 2.977-.437 1.951c2.841.637 5.376.833 7.522.455l-.347-1.97-.347-1.969c-1.426.251-3.383.157-5.954-.419l-.437 1.952Zm6.738.436.347 1.97c3.165-.558 5.953-2.063 8.34-4.434l-1.41-1.418-1.41-1.419c-1.854 1.843-3.917 2.927-6.215 3.332l.348 1.969Zm7.276-3.882 1.382 1.446c2.669-2.55 3.8-5.689 3.175-9.236l-1.97.347-1.97.348c.375 2.126-.218 3.948-1.998 5.649l1.381 1.446Zm2.587-7.443 1.97-.347c-.769-4.359-3.469-7.862-7.725-10.541L55.7 153.14l-1.066 1.693c3.542 2.228 5.389 4.855 5.916 7.85l1.97-.348Zm-6.82-9.195 1.065-1.693c-3.978-2.503-8.362-4.869-13.149-7.101l-.845 1.813-.845 1.813c4.654 2.169 8.89 4.457 12.709 6.861l1.065-1.693Zm-12.929-6.981.867-1.802a77.657 77.657 0 0 1-12.767-7.728l-1.195 1.604-1.195 1.604a81.7 81.7 0 0 0 13.424 8.125l.866-1.803Zm-13.095-7.926 1.241-1.568c-3.664-2.901-5.83-6.486-6.592-10.811l-1.97.347-1.97.347c.942 5.339 3.657 9.775 8.05 13.253l1.24-1.568Zm-7.32-12.032 1.969-.347c-.892-5.057-.262-9.97 1.913-14.79l-1.823-.823-1.823-.823c-2.497 5.535-3.241 11.262-2.206 17.13l1.97-.347Zm2.06-15.96 1.83.803c2.209-5.032 5.43-9.643 9.694-13.834l-1.402-1.427-1.402-1.426c-4.598 4.52-8.125 9.547-10.552 15.08l1.831.804Zm10.122-14.458 1.422 1.407c4.279-4.326 8.998-7.881 14.158-10.675l-.952-1.76-.953-1.758c-5.517 2.988-10.55 6.784-15.097 11.38l1.422 1.406Zm14.628-11.027.971 1.748c5.267-2.926 10.344-4.8 15.235-5.662l-.347-1.97-.347-1.97c-5.403.954-10.9 3.003-16.484 6.106l.972 1.748Zm15.859-5.883.347 1.97c3.447-.609 6.715-.577 9.82.072l.408-1.958.41-1.957c-3.643-.761-7.426-.786-11.332-.097l.347 1.97Zm10.575.084-.352 1.97c2.954.527 5.443 1.832 7.522 3.933l1.422-1.406 1.421-1.407c-2.665-2.694-5.904-4.387-9.66-5.058l-.353 1.968Zm8.592 4.497-1.422 1.407c1.994 2.015 3.462 5.096 4.233 9.47l1.97-.347 1.97-.348c-.86-4.87-2.579-8.809-5.33-11.589l-1.421 1.407Zm4.78 10.53-1.969.347c.113.641.18 1.291.202 1.952l2-.066 1.998-.065a17.833 17.833 0 0 0-.26-2.516l-1.97.348Zm.232 2.233-1.97.348c.114.64.181 1.291.203 1.951l1.999-.065 1.999-.065a17.835 17.835 0 0 0-.261-2.516l-1.97.347Zm.232 2.234-2 .065c.023.675.007 1.421-.051 2.241l1.995.141 1.995.141c.066-.935.087-1.82.06-2.653l-2 .065Zm-.056 2.447-2 .065c.026.767.06 1.585.104 2.454l1.997-.1 1.998-.1c-.043-.849-.076-1.644-.1-2.384l-2 .065Zm.101 2.419-.881-1.795-21.68 10.646.88 1.796.882 1.795 21.68-10.647-.88-1.795ZM67.8 113.964l1.995.14c.067-.955.078-1.904.03-2.845l-1.997.1-1.998.1c.04.777.031 1.565-.025 2.364l1.995.141Zm.028-2.605 1.995.141a12.523 12.523 0 0 0-.155-3.065l-1.97.347-1.97.348a8.51 8.51 0 0 1 .105 2.088l1.995.141Zm-.13-2.577 1.97-.347c-.581-3.297-1.67-6.038-3.618-7.66l-1.28 1.538-1.279 1.537c.844.702 1.708 2.274 2.238 5.28l1.97-.348Zm-2.927-6.469 1.4-1.428c-1.764-1.731-3.96-2.426-6.391-1.998l.347 1.97.347 1.969c1.141-.201 2.04.075 2.896.914l1.4-1.427Zm-4.644-1.456-.347-1.97c-1.52.268-3.15 1.365-4.77 2.746l1.298 1.522 1.298 1.521c1.582-1.349 2.498-1.784 2.868-1.85l-.347-1.969Zm-3.819 2.298-1.228-1.578c-1.856 1.444-3.408 3.31-4.675 5.552l1.74.984 1.742.984c1.045-1.848 2.267-3.288 3.65-4.364l-1.229-1.578Zm-4.162 4.958-1.748-.972c-1.285 2.309-1.723 4.785-1.27 7.353l1.97-.347 1.97-.348c-.289-1.633-.028-3.18.826-4.714l-1.748-.972Zm-1.048 6.034-1.97.347c.722 4.095 3.042 7.23 6.777 9.315l.975-1.746.975-1.746c-2.752-1.537-4.287-3.68-4.788-6.518l-1.97.348Zm5.782 7.916-.904 1.784c3.397 1.721 7.216 3.412 11.453 5.075l.73-1.862.731-1.862c-4.142-1.625-7.842-3.266-11.106-4.919l-.904 1.784Zm11.28 4.997-.7 1.874c1.73.646 3.855 1.859 6.391 3.724l1.185-1.611 1.185-1.612c-2.691-1.979-5.151-3.423-7.362-4.249l-.7 1.874Zm6.876 3.987-1.147 1.638c2.314 1.62 4.571 4.107 6.736 7.562l1.695-1.062 1.695-1.061c-2.357-3.762-4.956-6.702-7.832-8.716l-1.147 1.639Zm7.284 8.138-1.659 1.118c2.138 3.173 3.767 7.614 4.794 13.439l1.97-.347 1.97-.348c-1.085-6.149-2.859-11.182-5.416-14.979l-1.659 1.117Zm5.105 14.21-1.97.347c1.31 7.429.595 14.197-2.083 20.369l1.835.796 1.835.796c3.02-6.964 3.784-14.537 2.353-22.656l-1.97.348Zm-2.218 21.512-1.845-.773c-2.602 6.21-6.709 11.463-12.364 15.771l1.212 1.591 1.212 1.591c6.185-4.712 10.743-10.519 13.63-17.407l-1.845-.773ZM72.21 191.496l-1.191-1.607c-5.67 4.205-12.284 6.988-19.882 8.328l.347 1.97.348 1.969c8.158-1.438 15.361-4.449 21.57-9.054l-1.192-1.606Zm28.127.402-1.995.135.18 2.658 2.502-.915-.687-1.878ZM92.586 77.912l-.433-1.953-1.68.372.118 1.716 1.995-.135Zm7.007-1.723.524 1.93.038-.01.037-.012-.599-1.908Zm6.739-2.326.709 1.87.009-.003.009-.003-.727-1.864Zm6.293-2.084.533 1.928.045-.013.045-.014-.623-1.901Zm6.35-1.77 1.999-.05-.063-2.443-2.382.544.446 1.95Zm.083 3.235-2 .052.001.049.004.049 1.995-.15Zm.008 3.735-1.997-.104-.003.061v.062l2-.019Zm.148 4.523 1.999-.065-.001-.017-.001-.018-1.997.1Zm.332 12.94-2 .04 2-.04Zm.257 16.201h2v-.025l-2 .025Zm.072 13.31-2 .018.001.021v.02l1.999-.059Zm.35 17.647-2 .024.029 2.354 2.318-.408-.347-1.97Zm2.364-.417.347 1.97 1.49-.263.153-1.505-1.99-.202Zm1.448-13.902-1.989-.215 1.989.215Zm1.132-11.086 1.991.189-1.991-.189Zm.919-8.61-1.979-.293-.004.026-.003.026 1.986.241Zm.853-7.137-1.989-.203-.002.019-.002.019 1.993.165Zm1.996-20.01 1.991.19-1.991-.19Zm.984-10.084-.348-1.97-1.485.262-.157 1.5 1.99.208Zm9.815-2.38-.613-1.904-.009.003.622 1.9Zm7.944-2.864 1.995.141.227-3.211-2.98 1.22.758 1.85Zm2.313 30.624-1.993.172.001.012 1.992-.184Zm2.063 23.681-1.993.159.001.016.002.016 1.99-.191Zm1.416 16.323-1.995.144.161 2.21 2.182-.385-.348-1.969Zm2.837-.501.347 1.97 1.582-.279.069-1.605-1.998-.086Zm3.022-70.394-.607-1.906-1.332.424-.06 1.396 1.999.086Zm10.307-3.28.606 1.906.008-.002.008-.003-.622-1.9Zm4.458-1.435-.605-1.907.605 1.907Zm4.774-1.492.588 1.911.013-.003.012-.004-.613-1.904Zm8.416-2.946 1.971.335.588-3.452-3.272 1.248.713 1.869Zm-3.953 32.865 1.993.166-1.993-.166Zm-3.036 38.066-1.994-.153-.001.012 1.995.141Zm-1.431 21.373-1.996-.126v.011l-.001.011 1.997.104Zm-1.031 21.79.669 1.885 1.271-.451.058-1.349-1.998-.085Zm-34.555 12.267-1.997.122.162 2.652 2.504-.889-.669-1.885Zm-3.792-62.044 1.996-.122-.136-2.237-2.207.389.347 1.97Zm-1.891.333-.347-1.969-1.504.265-.14 1.521 1.991.183Zm-5.513 59.948.686 1.879 1.189-.435.116-1.26-1.991-.184Zm-31.747 11.61 1.995-.136-7.75-113.986-1.996.136-1.995.135 7.75 113.986 1.996-.135ZM92.586 77.912l.432 1.953c2.427-.538 4.794-1.12 7.099-1.746l-.524-1.93-.524-1.93a150.985 150.985 0 0 1-6.916 1.7l.433 1.953Zm7.007-1.723.599 1.908a123.63 123.63 0 0 0 6.849-2.364l-.709-1.87-.71-1.87a119.924 119.924 0 0 1-6.628 2.288l.6 1.908Zm6.739-2.326.727 1.864a62.73 62.73 0 0 1 6.099-2.02l-.533-1.928-.532-1.928a66.753 66.753 0 0 0-6.488 2.15l.727 1.862Zm6.293-2.084.623 1.9a69.651 69.651 0 0 1 6.172-1.72l-.445-1.95-.446-1.95a73.762 73.762 0 0 0-6.526 1.82l.622 1.9Zm6.35-1.77-2 .052.083 3.234 2-.05 1.999-.052-.083-3.235-1.999.051Zm.083 3.235-1.995.15c.072.962.077 2.119.006 3.48l1.997.105 1.998.105c.077-1.48.076-2.814-.012-3.99l-1.994.15Zm.008 3.735-2 .02c.013 1.331.063 2.867.15 4.604l1.998-.1 1.997-.1a111.441 111.441 0 0 1-.145-4.442l-2 .018Zm.148 4.523-1.999.066c.123 3.759.233 8.063.331 12.914l2-.04 1.999-.041a1059.02 1059.02 0 0 0-.332-12.964l-1.999.066Zm.332 12.94-2 .04c.098 4.85.184 10.245.257 16.186l2-.025 2-.025c-.073-5.948-.159-11.354-.258-16.217l-1.999.04Zm.257 16.201h-2c0 3.691.024 8.134.072 13.328l2-.018 2-.019c-.048-5.187-.072-9.616-.072-13.291h-2Zm.072 13.31-1.999.059c.154 5.157.27 11.028.349 17.612l2-.024 2-.024c-.08-6.602-.196-12.497-.35-17.683l-2 .06Zm.35 17.647.347 1.97 2.364-.417-.347-1.97-.348-1.969-2.363.416.347 1.97Zm2.364-.417 1.99.202c.513-5.07.995-9.7 1.446-13.89l-1.988-.214-1.989-.215c-.452 4.201-.935 8.839-1.449 13.916l1.99.201Zm1.448-13.902 1.988.214c.452-4.202.831-7.906 1.135-11.111l-1.991-.189-1.991-.188c-.302 3.184-.679 6.87-1.13 11.059l1.989.215Zm1.132-11.086 1.991.189c.302-3.181.606-6.033.913-8.558l-1.985-.241-1.986-.241c-.312 2.567-.62 5.455-.924 8.663l1.991.188Zm.919-8.61 1.978.294c.4-2.701.691-5.124.868-7.265l-1.993-.166-1.993-.165c-.169 2.036-.448 4.371-.839 7.009l1.979.293Zm.853-7.137 1.99.204c.835-8.165 1.501-14.84 1.997-20.024l-1.991-.19-1.991-.19a3180.066 3180.066 0 0 1-1.994 19.997l1.989.203Zm1.996-20.01 1.991.19c.495-5.18.822-8.532.982-10.067l-1.989-.207-1.99-.207c-.161 1.554-.49 4.925-.985 10.1l1.991.191Zm.984-10.084.347 1.97 1.418-.25-.347-1.97-.347-1.97-1.419.25.348 1.97Zm1.418-.25.347 1.97a63.146 63.146 0 0 0 8.673-2.2l-.623-1.9-.622-1.901a59.105 59.105 0 0 1-8.122 2.061l.347 1.97Zm8.397-2.13.614 1.903c3.01-.97 5.707-1.941 8.088-2.916l-.758-1.85-.758-1.852c-2.266.928-4.864 1.865-7.799 2.81l.613 1.904Zm7.944-2.864-1.995-.14c-.026.371.001 1.067.046 1.905.049.902.129 2.134.241 3.69l1.995-.144 1.994-.143c-.11-1.546-.189-2.75-.235-3.619a39.168 39.168 0 0 1-.046-1.028c-.009-.28-.005-.381-.005-.38l-1.995-.14Zm.287 5.311-1.995.143c.222 3.11.513 6.909.871 11.398l1.993-.159 1.994-.159c-.358-4.483-.647-8.27-.869-11.366l-1.994.143Zm.869 11.382-1.993.16c.358 4.49.744 9.138 1.157 13.943l1.993-.172 1.992-.172a2187.9 2187.9 0 0 1-1.155-13.918l-1.994.16Zm1.157 13.931-1.992.184c.839 9.053 1.526 16.938 2.062 23.656l1.993-.159 1.994-.159a1878.109 1878.109 0 0 0-2.066-23.707l-1.991.185Zm2.063 23.681-1.99.191c.641 6.703 1.111 12.127 1.411 16.276l1.995-.144 1.995-.145c-.304-4.192-.777-9.65-1.42-16.368l-1.991.19Zm1.416 16.323.348 1.969 2.836-.5-.347-1.97-.348-1.969-2.836.5.347 1.97Zm2.837-.501 1.998.086 3.022-70.394-1.998-.086-1.999-.086-3.022 70.395 1.999.085Zm3.022-70.394.606 1.906 10.307-3.28-.606-1.905-.607-1.906-10.307 3.28.607 1.905Zm10.307-3.28.622 1.901a486.61 486.61 0 0 1 4.441-1.43l-.605-1.906-.605-1.907c-1.544.49-3.036.97-4.476 1.442l.623 1.9Zm4.458-1.435.605 1.906c1.533-.486 3.119-.982 4.757-1.487l-.588-1.911-.589-1.911a615.298 615.298 0 0 0-4.79 1.496l.605 1.907Zm4.774-1.492.613 1.904c3.002-.967 5.841-1.961 8.516-2.982l-.713-1.868-.713-1.869a166.71 166.71 0 0 1-8.317 2.911l.614 1.904Zm8.416-2.946-1.972-.336c-1.607 9.45-2.931 20.465-3.974 33.036l1.993.165 1.993.166c1.036-12.491 2.348-23.387 3.931-32.696l-1.971-.335Zm-3.953 32.865-1.993-.165a6013.822 6013.822 0 0 0-3.037 38.078l1.994.153 1.994.153a6082.166 6082.166 0 0 1 3.035-38.053l-1.993-.166Zm-3.036 38.066-1.995-.141c-.496 7.024-.973 14.154-1.432 21.388l1.996.126 1.996.127c.458-7.225.935-14.345 1.43-21.359l-1.995-.141Zm-1.431 21.373-1.997-.104c-.372 7.112-.716 14.382-1.033 21.809l1.999.085 1.998.085c.316-7.414.659-14.671 1.031-21.77l-1.998-.105Zm-1.031 21.79-.67-1.884-34.554 12.266.669 1.885.669 1.885 34.555-12.267-.669-1.885Zm-34.555 12.267 1.996-.122-3.792-62.044-1.996.122-1.996.122 3.791 62.044 1.997-.122Zm-3.792-62.044-.347-1.97-1.891.334.347 1.969.348 1.97 1.89-.334-.347-1.969Zm-1.891.333-1.991-.183-5.514 59.948 1.992.183 1.991.184 5.514-59.949-1.992-.183Zm-5.513 59.948-.687-1.878-31.747 11.609.687 1.879.687 1.878 31.746-11.609-.686-1.879Zm56.918-4.837-1.989-.211 3.627 1.358-1.638-1.147Zm1.477-22.031-1.998-.097-.001.013v.013l1.999.071Zm.791-24.997-1.999-.051-.001.01v.01l2 .031Zm.587-24.311-1.999-.052v.006l1.999.046Zm.328-21.179 2 .01-2-.01Zm.086-21.624-.654-1.89-1.342.465-.004 1.42 2 .005Zm23.886-8.273 2 .034.049-2.86-2.703.936.654 1.89Zm-.401 21.68 1.999.045v-.006l-1.999-.04Zm-.485 21.205-2-.045 2 .045Zm-.458 24.126 2 .031-2-.031Zm-.29 25.072 1.999.02v-.005l-1.999-.015Zm-.208 22.782.348 1.969 1.639-.289.013-1.664-2-.016Zm-7.007 1.723.492 1.938.036-.009.035-.01-.563-1.919Zm-8.342 2.446.563 1.919.035-.01.034-.012-.632-1.897Zm-7.081 2.223-.651-1.891-.008.002-.008.003.667 1.886Zm-2.883 1.158 1.989.212c.699-6.569 1.194-13.961 1.486-22.172l-1.998-.071-1.999-.071c-.29 8.139-.78 15.434-1.467 21.891l1.989.211Zm1.477-22.031 1.997.097c.398-8.216.663-16.571.794-25.063l-2-.031-2-.031c-.13 8.45-.393 16.761-.789 24.931l1.998.097Zm.791-24.997 1.999.05c.218-8.596.414-16.701.588-24.316l-2-.045-1.999-.046c-.174 7.611-.37 15.713-.587 24.306l1.999.051Zm.587-24.311 2 .051c.18-6.977.29-14.05.328-21.22l-2-.01-2-.01a1027.67 1027.67 0 0 1-.327 21.137l1.999.052Zm.328-21.179 2 .01c.038-7.156.067-14.366.086-21.628l-2-.005-2-.006c-.019 7.259-.048 14.465-.086 21.618l2 .011Zm.086-21.624.655 1.89 23.886-8.273-.655-1.89-.654-1.89-23.886 8.274.654 1.89Zm23.886-8.273-1.999-.034c-.125 7.277-.259 14.501-.402 21.673l2 .04 1.999.04c.144-7.176.277-14.404.402-21.685l-2-.034Zm-.401 21.68-2-.047-.485 21.207 2 .045 1.999.046.485-21.206-1.999-.046Zm-.485 21.205-2-.045c-.174 7.618-.326 15.665-.457 24.141l1.999.03 2 .031c.131-8.467.283-16.504.457-24.11l-1.999-.047Zm-.458 24.126-1.999-.03c-.131 8.476-.228 16.838-.291 25.087l2 .015 1.999.015c.063-8.237.16-16.589.291-25.056l-2-.031Zm-.29 25.072-2-.02c-.082 8.139-.151 15.734-.207 22.786l1.999.016 2 .016c.057-7.049.126-14.642.207-22.778l-1.999-.02Zm-.208 22.782-.347-1.97c-1.99.351-4.403.947-7.222 1.774l.562 1.919.563 1.919c2.741-.804 5-1.357 6.792-1.673l-.348-1.969Zm-7.007 1.723-.492-1.939a121.505 121.505 0 0 0-8.482 2.487l.632 1.898.632 1.897c2.717-.905 5.45-1.706 8.202-2.405l-.492-1.938Zm-8.342 2.446-.563-1.92c-2.799.821-5.19 1.572-7.169 2.252l.651 1.891.65 1.891c1.902-.654 4.232-1.385 6.994-2.195l-.563-1.919Zm-7.081 2.223-.667-1.886c-.925.327-1.656.597-2.176.806-.256.103-.492.204-.686.298a3.829 3.829 0 0 0-.335.182c-.035.022-.387.225-.657.611l1.638 1.147 1.638 1.147a1.847 1.847 0 0 1-.511.494c-.044.028-.06.034-.023.016.068-.033.203-.093.427-.183a54.37 54.37 0 0 1 2.018-.746l-.666-1.886Zm44.65-6.898-1.999-.046-.066 2.864 2.711-.925-.646-1.893Zm.438-17.787-1.998-.08-.001.014v.014l1.999.052Zm.466-17.628-1.999-.046-.001.011v.011l2 .024Zm-.344-59.078 1.999-.075-.072-1.915-1.916-.01-.011 2Zm-3.68.324.183 1.992.083-.008.082-.014-.348-1.97Zm-3.624.639.51 1.934.007-.002.008-.002-.525-1.93Zm-7.572.36-1.998.1.082 1.617 1.597.258.319-1.975Zm-1.88-12.503 1.995-.15-.001-.009-.001-.009-1.993.168Zm-1.046-7.777-.195-1.99-1.991.195.195 1.99 1.991-.195Zm8.277-.972-.271-1.981.271 1.981Zm30.3-5.992-.491-1.94-.002.001.493 1.939Zm19.362-5.364 2 .053.073-2.778-2.657.812.584 1.913Zm-.233 8.814L275 50.38v.023l1.999.03Zm-.112 7.656 2 .031v-.002l-2-.029Zm-.279 6.71.853 1.81 1.041-.492.099-1.146-1.993-.171Zm-3.327 1.4.694 1.875-.694-1.875Zm-3.384 1.084-.524-1.93.524 1.93Zm-3.54 1.111-.667-1.885-.014.004-.013.005.694 1.876Zm-3.356 1.242-.694-1.876-1.271.47-.034 1.355 1.999.05Zm-.383 20.863-2-.017v.036l2-.019Zm.211 16.86-2 .032.001.016v.017l1.999-.065Zm.322 17.49-2 .013v.002l2-.015Zm.969 33.135.646 1.893 1.427-.487-.076-1.507-1.997.101Zm-27.585 9.413 2 .045c.136-5.978.282-11.905.438-17.779l-2-.053-1.999-.052c-.155 5.878-.302 11.809-.438 17.793l1.999.046Zm.438-17.787 1.999.081c.242-6.018.398-11.913.467-17.685l-2-.024-2-.024a619.053 619.053 0 0 1-.464 17.572l1.998.08Zm.466-17.628 2 .045c.473-20.698.358-40.431-.345-59.198l-1.999.075-1.998.075c.7 18.678.814 38.331.343 58.957l1.999.046Zm-.344-59.078.011-2a22.547 22.547 0 0 0-4.038.354l.347 1.97.348 1.97c1.151-.203 2.257-.3 3.322-.294l.01-2Zm-3.68.324-.182-1.992a23.206 23.206 0 0 0-3.966.7l.524 1.93.525 1.931a19.17 19.17 0 0 1 3.282-.578l-.183-1.991Zm-3.624.639-.509-1.934a16.08 16.08 0 0 1-6.744.32l-.319 1.974-.319 1.975a20.08 20.08 0 0 0 8.401-.401l-.51-1.934Zm-7.572.36 1.997-.1a23.896 23.896 0 0 0-.342-2.954l-1.97.348-1.969.347c.154.873.248 1.692.286 2.46l1.998-.1Zm-.315-2.706 1.97-.348-.001-.006-.001-.006-.001-.006-.002-.006-.001-.006-.001-.006-.001-.007-.001-.006-.001-.006-.001-.006-.001-.006-.001-.006-.001-.007-.001-.006-.001-.006-.002-.006-.001-.006-.001-.006-.001-.006-.001-.007-.001-.006-.001-.006-.001-.006-.001-.006-.001-.006-.001-.007-.002-.006-.001-.006-.001-.006-.001-.006-.001-.006-.001-.006-.001-.007-.001-.006-.001-.006-.001-.006-.001-.006-.001-.006-.002-.007-.001-.006-.001-.006-.001-.006-.001-.006-.001-.006-.001-.006-.001-.007-.001-.006-.001-.006-.001-.006-.001-.006-.002-.006-.001-.007-.001-.006-.001-.006-.001-.006-.001-.006-.001-.006-.001-.006-.001-.007-.001-.006-.001-.006-.001-.006-.002-.006-.001-.006-.001-.007-.001-.006-.001-.006-.001-.006-.001-.006-.001-.006-.001-.007-.001-.006-.001-.006-.002-.006-.001-.006-.001-.006-.001-.006-.001-.006-.001-.007-.001-.006-.001-.006-.001-.006-.001-.006-.001-.007-.001-.006-.002-.006-.001-.006-.001-.006-.001-.006-.001-.006-.001-.007-.001-.006-.001-.006-.001-.006-.001-.006-.001-.006-.001-.007-.002-.006-.001-.006-.001-.006-.001-.006-.001-.006-.001-.006-.001-.007-.001-.006-.001-.006-.001-.006-.001-.006-.001-.006-.002-.007-.001-.006-.001-.006-.001-.006-.001-.006-.001-.006-.001-.006-.001-.007-.001-.006-.001-.006-.001-.006-.002-.006-.001-.006-.001-.007-.001-.006-.001-.006-.001-.006-.001-.006-.001-.006-.001-.007-.001-.006-.001-.006-.001-.006-.002-.006-.001-.006-.001-.006-.001-.006-.001-.007-.001-.006-.001-.006-.001-.006-.001-.006-.001-.007-.001-.006-.001-.006-.002-.006-.001-.006-.001-.006-.001-.006-.001-.007-.001-.006-.001-.006-.001-.006-.001-.006-.001-.006-.001-.007-.002-.006-.001-.006-.001-.006-.001-.006-.001-.006-.001-.006-.001-.007-.001-.006-.001-.006-.001-.006-.001-.006-.001-.006-.002-.007-.001-.006-.001-.006-.001-.006-.001-.006-.001-.006-.001-.006-.001-.007-.001-.006-.001-.006-.001-.006-.001-.006-.002-.006-.001-.006-.001-.007-.001-.006-.001-.006-.001-.006-.001-.006-.001-.006-.001-.007-.001-.006-.001-.006-.001-.006-.002-.006-.001-.006-.001-.006-.001-.007-.001-.006-.001-.006-.001-.006-.001-.006-.001-.007-.001-.006-.001-.006-.002-.006-.001-.006-.001-.006-.001-.006-.001-.007-.001-.006-.001-.006-.001-.006-.001-.006-.001-.006-.001-.007-.001-.006-.002-.006-.001-.006-.001-.006-.001-.006-.001-.006-.001-.007-.001-.006-.001-.006-.001-.006-.001-.006-.001-.006-.001-.007-.002-.006-.001-.006-.001-.006-.001-.006-.001-.006-.001-.006-.001-.007-.001-.006-.001-.006-.001-.006-.001-.006-.002-.006-.001-.006-.001-.007-.001-.006-.001-.006-.001-.006-.001-.006-.001-.006-.001-.007-.001-.006-.001-.006-.001-.006-.002-.006-.001-.006-.001-.006-.001-.007-.001-.006-.001-.006-.001-.006-.001-.006-.001-.007-.001-.006-.001-.006-.001-.006-.002-.006-.001-.006-.001-.006-.001-.007-.001-.006-.001-.006-.001-.006-.001-.006-.001-.006-.001-.007-.001-.006-.001-.006-.002-.006-.001-.006-.001-.006-.001-.006-.001-.007-.001-.006-.001-.006-.001-.006-.001-.006-.001-.006-.001-.007-.002-.006-.001-.006-.001-.006-.001-.006-.001-.006-.001-.006-.001-.007-.001-.006-.001-.006-.001-.006-.001-.006-.001-.006-.002-.006-.001-.007-.001-.006-.001-.006-.001-.006-.001-.006-.001-.006-.001-.007-.001-.006-.001-.006-.001-.006-.001-.006-.002-.006-.001-.007-.001-.006-.001-.006-.001-.006-.001-.006-.001-.006-.001-.006-.001-.007-.001-.006-.001-.006-.001-.006-.002-.006-.001-.006-.001-.007-.001-.006-.001-.006-.001-.006-.001-.006-.001-.006-.001-.007-.001-.006-.001-.006-.002-.006-.001-.006-.001-.006-.001-.006-.001-.007-.001-.006-.001-.006-.001-.006-.001-.006-.001-.006-.001-.006-.001-.007-.002-.006-.001-.006-.001-.006-.001-.006-.001-.006-.001-.007-.001-.006-.001-.006-.001-.006-.001-.006-.001-.006-.001-.006-.002-.007-.001-.006-.001-.006-.001-.006-.001-.006-.001-.006-.001-.007-.001-.006-.001-.006-.001-.006-.001-.006-.002-.006-.001-.007-.001-.006-.001-.006-.001-.006-.001-.006-.001-.006-.001-.006-.001-.007-.001-.006-.001-.006-.001-.006-.002-.006-.001-.006-.001-.007-.001-.006-.001-.006-.001-.006-.001-.006-.001-.006-.001-.007-.001-.006-.001-.006-.001-.006-.002-.006-.001-.006-.001-.006-.001-.007-.001-.006-.001-.006-.001-.006-.001-.006-.001-.006-.001-.006-.001-.007-.001-.006-.002-.006-.001-.006-.001-.006-.001-.006-.001-.007-.001-.006-.001-.006-.001-.006-.001-.006-.001-.006-.001-.007-.002-.006-.001-.006-.001-.006-.001-.006-.001-.006-.001-.006-.001-.007-.001-.006-.001-.006-.001-.006-.001-.006-.001-.006-.002-.007-.001-.006-.001-.006-.001-.006-.001-.006-.001-.006-.001-.006-.001-.007-.001-.006-.001-.006-.001-.006-.001-.006-.002-.006-.001-.007-.001-.006-.001-.006-.001-.006-.001-.006-.001-.006-.001-.006-.001-.007-.001-.006-.001-.006-.002-.006-.001-.006-.001-.006-.001-.007-.001-.006-.001-.006-.001-.006-.001-.006-.001-.006-.001-.006-.001-.007-.001-.006-.002-.006-.001-.006-.001-.006-.001-.006-.001-.007-.001-.006-.001-.006-.001-.006-.001-.006-.001-.006-.001-.007-.001-.006-.002-.006-.001-.006-.001-.006-.001-.006-.001-.006-.001-.007-.001-.006-.001-.006-.001-.006-.001-.006-.001-.006-.001-.007-.002-.006-.001-.006-.001-.006-.001-.006-.001-.006-.001-.006-.001-.007-.001-.006-.001-.006-.001-.006-.001-.006-.002-.006-.001-.007-.001-.006-.001-.006-.001-.006-.001-.006-.001-.006-.001-.006-.001-.007-.001-.006-.001-.006-.001-.006-.002-.006-.001-.006-.001-.007-.001-.006-.001-.006-1.969.348-1.97.347.001.006.001.006.001.006a.013.013 0 0 1 .001.006.013.013 0 0 1 .001.007.013.013 0 0 1 .001.006.013.013 0 0 1 .001.006l.002.006.001.006.001.006.001.007.001.006.001.006.001.006.001.006a.013.013 0 0 1 .001.006.013.013 0 0 1 .001.006.013.013 0 0 1 .001.007l.002.006.001.006.001.006.001.006.001.006.001.007.001.006.001.006.001.006a.013.013 0 0 1 .001.006.013.013 0 0 1 .001.006.013.013 0 0 1 .001.006l.002.007.001.006.001.006.001.006.001.006.001.006.001.006.001.007.001.006a.013.013 0 0 1 .001.006.013.013 0 0 1 .001.006.013.013 0 0 1 .001.006l.002.006.001.007.001.006.001.006.001.006.001.006.001.006.001.006a.013.013 0 0 1 .001.007.013.013 0 0 1 .001.006.013.013 0 0 1 .001.006l.002.006.001.006.001.006.001.007.001.006.001.006.001.006.001.006.001.006a.013.013 0 0 1 .001.007.013.013 0 0 1 .001.006.013.013 0 0 1 .001.006l.002.006.001.006.001.006.001.007.001.006.001.006.001.006.001.006.001.006a.013.013 0 0 1 .001.006.013.013 0 0 1 .001.007l.001.006.002.006.001.006.001.006.001.006.001.007.001.006.001.006.001.006a.013.013 0 0 1 .001.006.013.013 0 0 1 .001.006l.001.006a.013.013 0 0 1 .001.007l.002.006.001.006.001.006.001.006.001.006.001.006.001.007.001.006a.013.013 0 0 1 .001.006.014.014 0 0 1 .001.006.013.013 0 0 1 .001.006l.002.006.001.007.001.006.001.006.001.006.001.006.001.006.001.006.001.007a.013.013 0 0 1 .001.006.013.013 0 0 1 .001.006.013.013 0 0 1 .001.006l.002.006.001.006.001.007.001.006.001.006.001.006.001.006.001.006.001.007a.013.013 0 0 1 .001.006.013.013 0 0 1 .001.006.013.013 0 0 1 .001.006l.002.006.001.006.001.006.001.007.001.006.001.006.001.006.001.006a.013.013 0 0 1 .001.006.013.013 0 0 1 .001.007.013.013 0 0 1 .001.006.013.013 0 0 1 .001.006l.002.006.001.006.001.006.001.007.001.006.001.006.001.006.001.006a.013.013 0 0 1 .001.006.013.013 0 0 1 .001.006.013.013 0 0 1 .001.007l.002.006.001.006.001.006.001.006.001.006.001.006.001.007.001.006.001.006a.013.013 0 0 1 .001.006.013.013 0 0 1 .001.006l.001.006.002.007.001.006.001.006.001.006.001.006.001.006.001.007.001.006a.014.014 0 0 1 .001.006.013.013 0 0 1 .001.006l.001.006a.013.013 0 0 1 .001.006l.002.006.001.007.001.006.001.006.001.006.001.006.001.006.001.007a.013.013 0 0 1 .001.006l.001.006a.013.013 0 0 1 .001.006l.002.006.001.006.001.006.001.007.001.006.001.006.001.006.001.006.001.006a.013.013 0 0 1 .001.007.013.013 0 0 1 .001.006.013.013 0 0 1 .001.006l.002.006.001.006.001.006.001.006.001.007.001.006.001.006.001.006.001.006a.013.013 0 0 1 .001.006.013.013 0 0 1 .001.007.013.013 0 0 1 .001.006l.002.006.001.006.001.006.001.006.001.006.001.007.001.006.001.006a.013.013 0 0 1 .001.006.013.013 0 0 1 .001.006.013.013 0 0 1 .001.006.013.013 0 0 1 .001.007l.002.006.001.006.001.006.001.006.001.006.001.007.001.006.001.006a.013.013 0 0 1 .001.006.014.014 0 0 1 .001.006.013.013 0 0 1 .001.006l.002.006.001.007.001.006.001.006.001.006.001.006.001.006.001.007.001.006a.013.013 0 0 1 .001.006.013.013 0 0 1 .001.006l.001.006.002.006.001.006.001.007.001.006.001.006.001.006.001.006.001.006.001.007a.013.013 0 0 1 .001.006l.001.006a.013.013 0 0 1 .001.006l.002.006.001.006.001.006.001.007.001.006.001.006.001.006.001.006a.013.013 0 0 1 .001.006l.001.007a.013.013 0 0 1 .001.006.013.013 0 0 1 .001.006l.002.006.001.006.001.006.001.007.001.006.001.006.001.006.001.006a.013.013 0 0 1 .001.006.013.013 0 0 1 .001.006.013.013 0 0 1 .001.007l.002.006.001.006.001.006.001.006.001.006.001.007.001.006.001.006.001.006a.013.013 0 0 1 .001.006.013.013 0 0 1 .001.006.013.013 0 0 1 .001.006l.002.007.001.006.001.006.001.006.001.006.001.006.001.007.001.006a.014.014 0 0 1 .001.006.013.013 0 0 1 .001.006.013.013 0 0 1 .001.006.013.013 0 0 1 .001.006l.002.006.001.007.001.006.001.006.001.006.001.006.001.006.001.007a.013.013 0 0 1 .001.006.013.013 0 0 1 .001.006.013.013 0 0 1 .001.006l.002.006.001.006.001.006.001.007.001.006.001.006.001.006.001.006.001.006a.013.013 0 0 1 .001.007.013.013 0 0 1 .001.006.013.013 0 0 1 .001.006l.002.006.001.006.001.006.001.007.001.006.001.006.001.006.001.006.001.006a.013.013 0 0 1 .001.006.013.013 0 0 1 .001.007.013.013 0 0 1 .001.006l.002.006.001.006.001.006.001.006.001.007.001.006.001.006.001.006a.013.013 0 0 1 .001.006l.001.006a.013.013 0 0 1 .001.006.013.013 0 0 1 .001.007l.002.006.001.006.001.006.001.006.001.006.001.007.001.006.001.006a.013.013 0 0 1 .001.006.014.014 0 0 1 .001.006.013.013 0 0 1 .001.006l.002.006.001.007.001.006.001.006.001.006.001.006.001.006.001.007.001.006a.013.013 0 0 1 .001.006.013.013 0 0 1 .001.006.013.013 0 0 1 .001.006l.002.006.001.006.001.007.001.006.001.006.001.006.001.006.001.006.001.007a.013.013 0 0 1 .001.006.013.013 0 0 1 .001.006.013.013 0 0 1 .001.006l.002.006.001.006.001.006.001.007.001.006.001.006.001.006.001.006a.013.013 0 0 1 .001.006.013.013 0 0 1 .001.007.013.013 0 0 1 .001.006l.002.006.001.006.001.006.001.006.001.007.001.006.001.006.001.006.001.006a.013.013 0 0 1 .001.006.013.013 0 0 1 .001.006.013.013 0 0 1 .001.007l.002.006.001.006.001.006.001.006.001.006.001.007.001.006.001.006.001.006a.013.013 0 0 1 .001.006.013.013 0 0 1 .001.006.013.013 0 0 1 .001.006l.002.007.001.006.001.006.001.006.001.006.001.006.001.007.001.006a.014.014 0 0 1 .001.006.013.013 0 0 1 .001.006.013.013 0 0 1 .001.006.013.013 0 0 1 .001.006l.002.006.001.007.001.006.001.006.001.006.001.006.001.006.001.007a.013.013 0 0 1 .001.006.013.013 0 0 1 .001.006.013.013 0 0 1 .001.006l.002.006.001.006.001.006.001.007.001.006.001.006.001.006.001.006.001.006.001.007a.013.013 0 0 1 .001.006.013.013 0 0 1 .001.006l.002.006.001.006.001.006.001.007.001.006.001.006.001.006.001.006.001.006a.013.013 0 0 1 .001.006.013.013 0 0 1 .001.006.013.013 0 0 1 .001.007l.002.006.001.006.001.006.001.006.001.007.001.006.001.006.001.006a.013.013 0 0 1 .001.006.013.013 0 0 1 .001.006.013.013 0 0 1 .001.006.013.013 0 0 1 .001.007l.002.006.001.006.001.006.001.006.001.006.001.007.001.006.001.006a.013.013 0 0 1 .001.006.013.013 0 0 1 .001.006.013.013 0 0 1 .001.006l.002.006.001.007.001.006.001.006.001.006.001.006.001.006.001.007.001.006a.013.013 0 0 1 .001.006.013.013 0 0 1 .001.006.013.013 0 0 1 .001.006l.002.006.001.006.001.007.001.006.001.006.001.006.001.006.001.006a.013.013 0 0 1 .001.007.013.013 0 0 1 .001.006.013.013 0 0 1 .001.006.013.013 0 0 1 .001.006l.002.006 1.969-.347Zm-.555-3.151 1.969-.348-.001-.007-.001-.006-.001-.007-.002-.007-.001-.007-.001-.006-.001-.007-.001-.007-.002-.007-.001-.007-.001-.006-.001-.007-.001-.007-.002-.007-.001-.006-.001-.007-.001-.007-.001-.007-.002-.006-.001-.007-.001-.007-.001-.007-.001-.006-.001-.007-.002-.007-.001-.007-.001-.006-.001-.007-.001-.007-.002-.006-.001-.007-.001-.007-.001-.007-.001-.006-.002-.007-.001-.007-.001-.007-.001-.006-.001-.007-.001-.007-.002-.006-.001-.007-.001-.007-.001-.007-.001-.006-.002-.007-.001-.007-.001-.006-.001-.007-.001-.007-.001-.007-.002-.006-.001-.007-.001-.007-.001-.006-.001-.007-.002-.007-.001-.007-.001-.006-.001-.007-.001-.007-.001-.006-.002-.007-.001-.007-.001-.006-.001-.007-.001-.007-.002-.007-.001-.006-.001-.007-.001-.007-.001-.006-.001-.007-.002-.007-.001-.006-.001-.007-.001-.007-.001-.006-.002-.007-.001-.007-.001-.006-.001-.007-.001-.007-.001-.006-.002-.007-.001-.007-.001-.006-.001-.007-.001-.007-.001-.006-.002-.007-.001-.007-.001-.006-.001-.007-.001-.007-.002-.006-.001-.007-.001-.007-.001-.006-.001-.007-.001-.007-.002-.006-.001-.007-.001-.006-.001-.007-.001-.007-.001-.006-.002-.007-.001-.007-.001-.006-.001-.007-.001-.007-.001-.006-.002-.007-.001-.007-.001-.006-.001-.007-.001-.006-.001-.007-.002-.007-.001-.006-.001-.007-.001-.007-.001-.006-.001-.007-.002-.006-.001-.007-.001-.007-.001-.006-.001-.007-.001-.007-.002-.006-.001-.007-.001-.006-.001-.007-.001-.007-.001-.006-.002-.007-.001-.006-.001-.007-.001-.007-.001-.006-.001-.007-.002-.006-.001-.007-.001-.007-.001-.006-.001-.007-.001-.006-.002-.007-.001-.007-.001-.006-.001-.007-.001-.006-.001-.007-.002-.006-.001-.007-.001-.007-.001-.006-.001-.007-.001-.006-.001-.007-.002-.006-.001-.007-.001-.007-.001-.006-.001-.007-.001-.006-.002-.007-.001-.007-.001-.006-.001-.007-.001-.006-.001-.007-.002-.006-.001-.007-.001-.006-.001-.007-.001-.007-.001-.006-.001-.007-.002-.006-.001-.007-.001-.006-.001-.007-.001-.006-.001-.007-.002-.007-.001-.006-.001-.007-.001-.006-.001-.007-.001-.006-.001-.007-.002-.006-.001-.007-.001-.006-.001-.007-.001-.006-.001-.007-.002-.006-.001-.007-.001-.007-.001-.006-.001-.007-.001-.006-.001-.007-.002-.006-.001-.007-.001-.006-.001-.007-.001-.006-.001-.007-.002-.006-.001-.007-.001-.006-.001-.007-.001-.006-.001-.007-.001-.006-.002-.007-.001-.006-.001-.007-.001-.006-.001-.007-.001-.006-.001-.007-.002-.006-.001-.007-.001-.006-.001-.007-.001-.006-.001-.007-.001-.006-.002-.007-.001-.006-.001-.007-.001-.006-.001-.007-.001-.006-.001-.007-.002-.006-.001-.007-.001-.006-.001-.007-.001-.006-.001-.007-.001-.006-.002-.006-.001-.007-.001-.006-.001-.007-.001-.006-.001-.007-.001-.006-.002-.007-.001-.006-.001-.007-.001-.006-.001-.007-.001-.006-.001-.007-.002-.006-.001-.006-.001-.007-.001-.006-.001-.007-.001-.006-.001-.007-.001-.006-.002-.007-.001-.006-.001-.006-.001-.007-.001-.006-.001-.007-.001-.006-.002-.007-.001-.006-.001-.007-.001-.006-.001-.006-.001-.007-.001-.006-.002-.007-.001-.006-.001-.007-.001-.006-.001-.006-.001-.007-.001-.006-.001-.007-.002-.006-.001-.006-.001-.007-.001-.006-.001-.007-.001-.006-.001-.007-.001-.006-.002-.006-.001-.007-.001-.006-.001-.007-.001-.006-.001-.006-.001-.007-.002-.006-.001-.007-.001-.006-.001-.006-.001-.007-.001-.006-.001-.006-.001-.007-.002-.006-.001-.007-.001-.006-.001-.007-.001-.006-.001-.006-.001-.007-.001-.006-.002-.006-.001-.007-.001-.006-.001-.006-.001-.007-.001-.006-.001-.007-.001-.006-.002-.006-.001-.007-.001-.006-.001-.006-.001-.007-.001-.006-.001-.007-.001-.006-.002-.006-.001-.007-.001-.006-.001-.006-.001-.007-.001-.006-.001-.007-.001-.006-.001-.006-.002-.007-.001-.006-.001-.006-.001-.007-.001-.006-.001-.006-.001-.007-.001-.006-.002-.006-.001-.007-.001-.006-.001-.006-.001-.007-.001-.006-.001-.006-.001-.007-.002-.006-.001-.006-.001-.007-.001-.006-.001-.006-.001-.007-.001-.006-.001-.006-.001-.007-.002-.006-.001-.006-.001-.007-.001-.006-.001-.006-.001-.007-.001-.006-.001-.006-.001-.007-.002-.006-.001-.006-.001-.006-.001-.007-.001-.006-.001-.006-.001-.007-.001-.006-.001-.006-.002-.007-.001-.006-.001-.006-.001-.006-.001-.007-.001-.006-.001-.006-.001-.007-.001-.006-.002-.006-.001-.007-.001-.006-.001-.006-.001-.006-.001-.007-.001-.006-.001-.006-.001-.007-.002-.006-.001-.006-.001-.006-.001-.007-.001-.006-.001-.006-.001-.006-.001-.007-.001-.006-.001-.006-.002-.006-.001-.007-.001-.006-.001-.006-.001-.007-.001-.006-.001-.006-.001-.006-.001-.007-.002-.006-.001-.006-.001-.006-.001-.007-.001-.006-.001-.006-.001-.006-.001-.006-.001-.007-.001-.006-.002-.006-.001-.007-.001-.006-.001-.006-.001-.006-.001-.007-.001-.006-.001-.006-.001-.006-.001-.006-.002-.007-.001-.006-.001-.006-.001-.006-.001-.007-.001-.006-.001-.006-.001-.006-.001-.007-.001-.006-.002-.006-.001-.006-.001-.006-.001-.007-.001-.006-.001-.006-.001-.006-.001-.006-.001-.007-.001-.006-.001-.006-.002-.006-.001-.006-.001-.007-.001-.006-.001-.006-.001-.006-.001-.006-.001-.007-.001-.006-.001-.006-.001-.006-.002-.006-.001-.007-.001-.006-.001-.006-.001-.006-.001-.006-.001-.007-.001-.006-.001-.006-.001-.006-.001-.006-.002-.006-.001-.007-.001-.006-.001-.006-.001-.006-.001-.006-.001-.007-.001-.006-.001-.006-.001-.006-.001-.006-.002-.006-.001-.007-.001-.006-.001-.006-.001-.006-.001-.006-.001-.006-.001-.007-.001-.006-.001-.006-1.97.347-1.97.348.002.006.001.006.001.006.001.006.001.007.001.006.001.006.001.006.001.006a.014.014 0 0 1 .001.006.013.013 0 0 1 .001.007.013.013 0 0 1 .001.006l.002.006.001.006.001.006.001.006.001.007.001.006.001.006.001.006a.014.014 0 0 1 .001.006l.001.007a.013.013 0 0 1 .001.006l.002.006.001.006.001.006.001.006.001.007.001.006.001.006.001.006a.013.013 0 0 1 .001.006l.001.007a.013.013 0 0 1 .001.006l.002.006.001.006.001.006.001.007.001.006.001.006.001.006.001.006a.013.013 0 0 1 .001.007.013.013 0 0 1 .001.006.013.013 0 0 1 .001.006l.002.006.001.006.001.007.001.006.001.006.001.006.001.007a.013.013 0 0 1 .001.006.013.013 0 0 1 .001.006l.001.006.002.006.001.007.001.006.001.006.001.006.001.007.001.006.001.006a.014.014 0 0 1 .001.006.013.013 0 0 1 .001.006l.002.007.001.006.001.006.001.006.001.007.001.006.001.006.001.006a.014.014 0 0 1 .001.007.013.013 0 0 1 .001.006l.002.006.001.006.001.007.001.006.001.006.001.006.001.007a.013.013 0 0 1 .001.006.014.014 0 0 1 .001.006.013.013 0 0 1 .001.006l.002.007.001.006.001.006.001.006.001.007.001.006.001.006a.014.014 0 0 1 .001.006.014.014 0 0 1 .001.007.014.014 0 0 1 .001.006l.002.006.001.007.001.006.001.006.001.006.001.007a.014.014 0 0 1 .001.006l.001.006a.014.014 0 0 1 .001.006l.002.007.001.006.001.006.001.007.001.006.001.006.001.006a.014.014 0 0 1 .001.007.014.014 0 0 1 .001.006l.002.006.001.007.001.006.001.006.001.007.001.006.001.006a.014.014 0 0 1 .001.006.014.014 0 0 1 .001.007l.002.006.001.006.001.007.001.006.001.006.001.007.001.006.001.006a.014.014 0 0 1 .001.006l.002.007.001.006.001.006.001.007.001.006.001.006.001.007a.014.014 0 0 1 .001.006.014.014 0 0 1 .001.006l.002.007.001.006.001.006.001.007.001.006.001.006a.015.015 0 0 1 .001.007.014.014 0 0 1 .001.006.014.014 0 0 1 .001.006l.002.007.001.006.001.006.001.007.001.006.001.006a.014.014 0 0 1 .001.007.014.014 0 0 1 .001.006l.002.006.001.007.001.006.001.006.001.007.001.006a.015.015 0 0 1 .001.006.014.014 0 0 1 .001.007l.002.006.001.007.001.006.001.006.001.007.001.006.001.006a.015.015 0 0 1 .001.007.014.014 0 0 1 .001.006l.002.006.001.007.001.006.001.006.001.007.001.006a.014.014 0 0 1 .001.007.014.014 0 0 1 .001.006l.002.006.001.007.001.006.001.006.001.007.001.006a.014.014 0 0 1 .001.007.014.014 0 0 1 .001.006l.002.006.001.007.001.006.001.007.001.006.001.006a.014.014 0 0 1 .001.007.014.014 0 0 1 .001.006l.002.007.001.006.001.006.001.007.001.006.001.006a.015.015 0 0 1 .001.007l.002.006.001.007.001.006.001.007.001.006.001.006a.014.014 0 0 1 .001.007.014.014 0 0 1 .001.006l.002.007.001.006.001.006.001.007.001.006.001.007a.014.014 0 0 1 .001.006.014.014 0 0 1 .001.006l.002.007.001.006.001.007.001.006.001.007a.015.015 0 0 1 .001.006.014.014 0 0 1 .001.006l.002.007.001.006.001.007.001.006.001.007.001.006a.014.014 0 0 1 .001.006.015.015 0 0 1 .001.007l.002.006.001.007.001.006.001.007.001.006a.014.014 0 0 1 .001.006.015.015 0 0 1 .001.007l.002.006.001.007.001.006.001.007.001.006.001.007a.014.014 0 0 1 .001.006l.002.007.001.006.001.006.001.007.001.006.001.007a.014.014 0 0 1 .001.006.015.015 0 0 1 .001.007l.002.006.001.007.001.006.001.007.001.006a.014.014 0 0 1 .001.007.015.015 0 0 1 .001.006l.002.007.001.006.001.007.001.006.001.007a.015.015 0 0 1 .001.006.014.014 0 0 1 .001.006l.002.007.001.006.001.007.001.006.001.007a.015.015 0 0 1 .001.006.014.014 0 0 1 .001.007l.002.006.001.007.001.006.001.007.001.006a.015.015 0 0 1 .001.007l.002.006.001.007.001.006.001.007.001.006.001.007a.015.015 0 0 1 .001.006l.002.007.001.006.001.007.001.006.001.007a.015.015 0 0 1 .001.006.015.015 0 0 1 .001.007l.002.006.001.007.001.006.001.007.001.007a.015.015 0 0 1 .001.006.015.015 0 0 1 .001.007l.002.006.001.007.001.006.001.007.001.006a.015.015 0 0 1 .001.007l.002.006.001.007.001.006.001.007.001.006a.015.015 0 0 1 .001.007.015.015 0 0 1 .001.006l.002.007.001.007.001.006.001.007.001.006a.015.015 0 0 1 .001.007l.002.006.001.007.001.006.001.007.001.006a.015.015 0 0 1 .001.007.015.015 0 0 1 .001.007l.002.006.001.007.001.006.001.007.001.006a.015.015 0 0 1 .001.007l.002.006.001.007.001.007.001.006.001.007a.015.015 0 0 1 .001.006.015.015 0 0 1 .001.007l.002.006.001.007.001.007.001.006.001.007a.015.015 0 0 1 .001.006l.002.007.001.006.001.007.001.007.001.006a.015.015 0 0 1 .001.007l.002.006.001.007.001.007.001.006.001.007a.015.015 0 0 1 .001.006l.002.007.001.007.001.006.001.007.001.006a.015.015 0 0 1 .001.007l.002.007.001.006.001.007.001.006.001.007a.015.015 0 0 1 .001.007.015.015 0 0 1 .001.006l.002.007.001.006.001.007.001.007a.015.015 0 0 1 .001.006.015.015 0 0 1 .001.007l.002.006.001.007.001.007.001.006a.015.015 0 0 1 .001.007.015.015 0 0 1 .001.006l.002.007.001.007.001.006.001.007a.016.016 0 0 1 .001.007.015.015 0 0 1 .001.006l.002.007.001.007.001.006.001.007a.015.015 0 0 1 .001.006l.002.007.001.007.001.006.001.007.001.007a.016.016 0 0 1 .001.006l.002.007.001.006.001.007.001.007.001.006a.015.015 0 0 1 .001.007l.002.007.001.006.001.007.001.007.001.006a.016.016 0 0 1 .001.007l.002.007.001.006.001.007.001.007a.016.016 0 0 1 .001.006.015.015 0 0 1 .001.007l.002.007.001.006.001.007.001.007a.015.015 0 0 1 .001.006l.002.007.001.007.001.006.001.007.001.007a.016.016 0 0 1 .001.006l.002.007.001.007.001.006.001.007a.016.016 0 0 1 .001.007.016.016 0 0 1 .001.006l.002.007.001.007.001.006.001.007a.016.016 0 0 1 .001.007l.002.007.001.006.001.007.001.007.001.006a.016.016 0 0 1 .001.007l.002.007.001.006.001.007.001.007a.016.016 0 0 1 .001.007l.002.006.001.007.001.007.001.006.001.007a.016.016 0 0 1 .001.007l.002.006.001.007.001.007.001.007a.016.016 0 0 1 .001.006l.002.007.001.007.001.007.001.006a.016.016 0 0 1 .001.007.016.016 0 0 1 .001.007l.002.006.001.007.001.007.001.007a.016.016 0 0 1 .001.006l.002.007.001.007.001.006.001.007a.016.016 0 0 1 .001.007l.002.007.001.006.001.007.001.007a.016.016 0 0 1 .001.007.016.016 0 0 1 .001.006l.002.007.001.007.001.007.001.006a.016.016 0 0 1 .001.007l.002.007.001.007.001.006.001.007a.016.016 0 0 1 .001.007l.002.007.001.006.001.007.001.007a.016.016 0 0 1 .001.007l.002.006.001.007.001.007.001.007a.016.016 0 0 1 .001.006l.002.007.001.007.001.007 1.97-.347Zm-.584-3.31 1.97-.347a31.355 31.355 0 0 1-.401-3.139l-1.995.15-1.994.15c.085 1.14.236 2.319.45 3.534l1.97-.348Zm-.426-3.336 1.993-.168a42.562 42.562 0 0 0-.505-3.831l-1.969.347-1.97.347a38.47 38.47 0 0 1 .458 3.472l1.993-.167Zm-.481-3.652 1.969-.347a52.283 52.283 0 0 1-.544-3.973l-1.99.195-1.991.196c.141 1.434.336 2.86.586 4.276l1.97-.347Zm-.565-4.125.195 1.99c2.794-.273 5.578-.6 8.353-.98l-.271-1.982-.271-1.981c-2.725.373-5.458.694-8.201.963l.195 1.99Zm8.277-.972.271 1.982c2.775-.38 5.541-.813 8.298-1.3l-.348-1.969-.347-1.97c-2.706.478-5.421.903-8.145 1.276l.271 1.981Zm8.221-1.287.348 1.97c7.817-1.379 15.225-2.957 22.223-4.737l-.492-1.938-.493-1.939c-6.893 1.753-14.204 3.312-21.933 4.675l.347 1.97Zm22.079-4.705.49 1.939c7.077-1.792 13.563-3.588 19.457-5.39l-.585-1.913-.584-1.913c-5.822 1.78-12.245 3.56-19.269 5.338l.491 1.939Zm19.362-5.364-1.999-.053L275 50.38l1.999.052 2 .053.233-8.814-2-.053Zm-.233 8.814L275 50.402l-.113 7.656 2 .03 2 .028.112-7.655-2-.03Zm-.112 7.656-2-.03c-.043 2.804-.135 4.987-.271 6.569l1.992.171 1.993.172c.148-1.718.242-4.008.286-6.851l-2-.03Zm-.279 6.71-.853-1.808a39.764 39.764 0 0 1-3.169 1.332l.695 1.876.694 1.875a43.827 43.827 0 0 0 3.486-1.466l-.853-1.808Zm-3.327 1.4-.695-1.876a37.776 37.776 0 0 1-3.213 1.03l.524 1.93.525 1.93a41.903 41.903 0 0 0 3.553-1.139l-.694-1.875Zm-3.384 1.084-.524-1.93a52.09 52.09 0 0 0-3.683 1.156l.667 1.885.666 1.886a47.792 47.792 0 0 1 3.399-1.067l-.525-1.93Zm-3.54 1.111-.694-1.876-3.356 1.242.694 1.876.694 1.876 3.356-1.242-.694-1.876Zm-3.356 1.242-1.999-.051c-.205 8.058-.333 15.025-.384 20.897l2 .017 2 .017c.05-5.843.178-12.785.383-20.83l-2-.05Zm-.383 20.863-2 .019c.055 5.843.126 11.467.211 16.873l2-.032 2-.032c-.086-5.396-.156-11.011-.211-16.847l-2 .02Zm.211 16.86-1.999.065c.172 5.256.279 11.069.321 17.438l2-.013 2-.014a676.953 676.953 0 0 0-.323-17.541l-1.999.065Zm.322 17.49-2 .015c.085 10.954.409 22.027.971 33.22l1.998-.1 1.997-.101a780.842 780.842 0 0 1-.966-33.05l-2 .016Zm.969 33.135-.646-1.893-27.585 9.413.646 1.893.646 1.893 27.585-9.413-.646-1.893Zm23.887-9.086 1.436-1.393-1.436 1.393ZM276.16 94.608l1.99.207v-.005l-1.99-.202Zm6.919-28.027 1.844.774-1.844-.774Zm14.239-21.52 1.402 1.427.005-.005-1.407-1.422Zm35.574-7.41-1.214 1.59 1.214-1.59Zm8.914 19.225.843 1.813 1.069-.497.083-1.175-1.995-.141Zm-19.67 9.154-1.625 1.166.966 1.347 1.503-.7-.844-1.813Zm-12.059 4.401-1.817-.835-.007.016-.007.016 1.831.803Zm-5.294 16.043-1.941-.482 1.941.482Zm-2.514 12.466-1.976-.309-.003.024-.004.023 1.983.262Zm-1.021 11.715-1.999-.068 1.999.068Zm3.066 15.544 1.569-1.239-.048-.061-.052-.057-1.469 1.357Zm8.638-1.685 1.484 1.341.022-.025.022-.026-1.528-1.29Zm4.172-6.747-1.797-.878-.013.027-.013.028 1.823.823Zm2.087-7.517.415-1.956-2.298-.488-.115 2.346 1.998.098Zm19.241 4.081 1.943.471.485-2-2.013-.427-.415 1.956Zm-13.852 29.25 1.482 1.343.003-.003-1.485-1.34Zm-18.724 11.75-.347-1.97c-5.871 1.035-11.183-.804-16.086-5.858l-1.436 1.393-1.435 1.392c5.686 5.86 12.286 8.311 19.651 7.012l-.347-1.969Zm-17.869-6.435 1.436-1.393c-4.918-5.068-8.402-12.777-10.27-23.369l-1.969.347-1.97.347c1.948 11.047 5.666 19.615 11.338 25.46l1.435-1.392Zm-10.803-24.415 1.969-.347a105.246 105.246 0 0 1-1.023-29.319l-1.99-.207-1.989-.207a109.21 109.21 0 0 0 1.063 30.427l1.97-.347Zm-1.044-29.873 1.99.202c1.009-9.969 3.272-19.116 6.773-27.455l-1.844-.774-1.844-.774c-3.67 8.739-6.019 18.276-7.064 28.6l1.989.201Zm6.919-28.027 1.844.774c3.494-8.323 8.099-15.267 13.797-20.867l-1.402-1.427-1.402-1.426c-6.118 6.014-11.006 13.417-14.681 22.172l1.844.774Zm14.239-21.52 1.407 1.422c5.709-5.649 12.435-9.143 20.223-10.516l-.348-1.97-.347-1.969c-8.6 1.517-16.062 5.399-22.342 11.612l1.407 1.421ZM318.6 33.998l.348 1.97c4.564-.805 8.767.248 12.73 3.273l1.214-1.59 1.213-1.59c-4.797-3.661-10.122-5.043-15.852-4.033l.347 1.97Zm14.292 3.654-1.214 1.59c3.892 2.97 6.473 7.504 7.593 13.856l1.97-.347 1.969-.347c-1.251-7.094-4.236-12.626-9.105-16.342l-1.213 1.59Zm8.349 15.1-1.97.346.333 1.891 1.97-.347 1.97-.347-.334-1.891-1.969.347Zm.333 1.89-1.97.347.001.003v.002l.001.003v.002l.001.003v.002l.001.003v.004l.001.003v.002l.001.003v.002l.001.003v.004l.001.003v.002l.001.003v.002l.001.003v.005l.001.002v.002l.001.003v.002l.001.003v.005l.001.002v.002l.001.003v.002l.001.003v.005l.001.002v.002l.001.003v.002l.001.003v.004l.001.003v.002l.001.003v.002l.001.002v.005l.001.003v.002l.001.002v.005l.001.003v.002l.001.002v.003l.001.002v.005l.001.002v.003l.001.002v.002l.001.003v.005l.001.002v.002l.001.003v.004l.001.003v.002l.001.003v.002l.001.002v.005l.001.003v.002l.001.002v.005l.001.002v.003l.001.002v.002l.001.003v.004l.001.003v.002l.001.002v.005l.001.003v.002l.001.002v.005l.001.002v.002l.001.003v.002l.001.003v.004l.001.002v.003l.001.002v.005l.001.002v.002l.001.003v.004l.001.003v.002l.001.002v.003l.001.002v.005l.001.002v.002l.001.002v.005l.001.002v.003l.001.002v.005l.001.002v.002l.001.002v.005l.001.002v.003l.001.002v.004l.001.003v.002l.001.002v.005l.001.002v.002l.001.003v.004l.001.002v.003l.001.002v.005l.001.002v.002l.001.002v.005l.001.002v.002l.001.003v.004l.001.003v.002l.001.002v.004l.001.003v.002l.001.002v.005l.001.002v.002l.001.002v.005l.001.002v.002l.001.003v.004l.001.002v.002l.001.003v.004l.001.002v.005l.001.002v.002l.001.003v.004l.001.002v.002l.001.003v.004l.001.002v.002l.001.003v.004l.001.002v.005l.001.002v.002l.001.002v.005l.001.002v.002l.001.002v.005l.001.002v.004l.001.002v.002l.001.003v.004l.001.002v.002l.001.002v.005l.001.002v.004l.001.003v.002l.001.002v.004l.001.002v.002l.001.003v.004l.001.002v.004l.001.003v.002l.001.002v.004l.001.002v.005l.001.002v.002l.001.002v.004l.001.002v.005l.001.002v.002l.001.002v.004l.001.003v.004l.001.002v.002l.001.002v.004l.001.002v.005l.001.002v.002l.001.002v.004l.001.002v.005l.001.002v.002l.001.002v.004l.001.002v.004l.001.002v.003l.001.002v.004l.001.002v.004l.001.002v.004l.001.002v.003l.001.002v.004l.001.002v.004l.001.002v.004l.001.002v.002l.001.002v.004l.001.003v.004l.001.002v.004l.001.002v.002l.001.002v.004l.001.002v.004l.001.002v.004l.001.002v.002l.001.002v.005l.001.002v.004l.001.002v.004l.001.002v.004l.001.002v.002l.001.002v.004l.001.002v.004l.001.002v.004l.001.002v.004l.001.002v.002l.001.002v.004l.001.002v.004l.001.002v.004l.001.002v.004l.001.002v.004l.001.002v.004l.001.002v.002l.001.002v.004l.001.002v.004l.001.002v.004l.001.002v.004l.001.002v.004l.001.002v.003l.001.002v.004l.001.002v.002l.001.002v.004l.001.002v.004l.001.002v.004l.001.002v.004l.001.002v.003l.001.002v.004l.001.002v.004l.001.002v.004l.001.002v.004l.001.001v.004l.001.002v.004l.001.002v.004l.001.002v.003l.001.002v.004l.001.002v.004l.001.002v.004l.001.001v.004l.001.002v.004l.001.002v.004l.001.001v.004l.001.002v.004l.001.002v.004l.001.001v.004l.001.002v.004l.001.002v.003l.001.002v.004l.001.002v.003l.001.002v.004l.001.002v.004l.001.001v.002l1.97-.347 1.969-.347v-.004l-.001-.002v-.004l-.001-.001v-.004l-.001-.002v-.004l-.001-.002v-.003l-.001-.002v-.004l-.001-.002v-.004l-.001-.001v-.004l-.001-.002v-.004l-.001-.002v-.003l-.001-.002v-.004l-.001-.002v-.004l-.001-.002v-.003l-.001-.002v-.004l-.001-.002v-.004l-.001-.002v-.003l-.001-.002v-.004l-.001-.002v-.004l-.001-.002v-.004l-.001-.002v-.003l-.001-.002v-.004l-.001-.002v-.004l-.001-.002v-.004l-.001-.002v-.004l-.001-.001v-.004l-.001-.002v-.004l-.001-.002v-.002l-.001-.002v-.004l-.001-.002v-.004l-.001-.002v-.004l-.001-.001v-.004l-.001-.002v-.004l-.001-.002v-.004l-.001-.002v-.004l-.001-.002v-.004l-.001-.002v-.004l-.001-.002v-.002l-.001-.002v-.004l-.001-.002v-.004l-.001-.002v-.004l-.001-.002v-.004l-.001-.002v-.004l-.001-.002v-.002l-.001-.001v-.005l-.001-.002v-.004l-.001-.002v-.004l-.001-.002v-.004l-.001-.002v-.004l-.001-.002v-.002l-.001-.002v-.004l-.001-.002v-.004l-.001-.002v-.004l-.001-.002V55.1l-.001-.002v-.002l-.001-.002v-.004l-.001-.002v-.004l-.001-.002v-.004l-.001-.002v-.005l-.001-.002v-.002l-.001-.002v-.004l-.001-.002v-.004l-.001-.002v-.004l-.001-.002v-.002l-.001-.002v-.004l-.001-.002v-.005l-.001-.002v-.004l-.001-.002v-.002l-.001-.002v-.004l-.001-.002v-.005l-.001-.002v-.002l-.001-.002v-.004l-.001-.002v-.004l-.001-.002v-.004l-.001-.003v-.002l-.001-.002v-.004l-.001-.002v-.004l-.001-.002v-.003l-.001-.002v-.004l-.001-.002v-.004l-.001-.002v-.003l-.001-.002v-.004l-.001-.002v-.004l-.001-.002v-.002l-.001-.003v-.004l-.001-.002v-.004l-.001-.002v-.002l-.001-.003v-.004l-.001-.002V54.9l-.001-.003v-.002l-.001-.002v-.004l-.001-.002v-.005l-.001-.002v-.002l-.001-.002v-.004l-.001-.002v-.003l-.001-.002v-.004l-.001-.002v-.005l-.001-.002v-.002l-.001-.002v-.005l-.001-.002v-.002l-.001-.002v-.004l-.001-.003v-.004l-.001-.002v-.002l-.001-.003v-.004l-.001-.002v-.002l-.001-.003v-.004l-.001-.002v-.005l-.001-.002v-.002l-.001-.002v-.005l-.001-.002v-.002l-.001-.002v-.005l-.001-.002v-.002l-.001-.002v-.005l-.001-.002v-.004l-.001-.003v-.002l-.001-.002v-.004l-.001-.003v-.002l-.001-.002v-.005l-.001-.002v-.002l-.001-.002v-.005l-.001-.002v-.002l-.001-.003v-.004l-.001-.002v-.003l-.001-.002v-.004l-.001-.003v-.002l-.001-.002v-.005l-.001-.002v-.002l-.001-.002v-.005l-.001-.002v-.002l-.001-.003v-.004l-.001-.003v-.002l-.001-.002v-.005l-.001-.002v-.002l-.001-.002v-.005l-.001-.002v-.003l-.001-.002v-.004l-.001-.003v-.002l-.001-.002v-.005l-.001-.002v-.003l-.001-.002v-.004l-.001-.003v-.002l-.001-.002V54.6l-.001-.002v-.003l-.001-.002v-.005l-.001-.002v-.002l-.001-.003v-.002l-.001-.002v-.005l-.001-.002v-.002l-.001-.003v-.004l-.001-.003v-.002l-.001-.002v-.005l-.001-.002v-.003l-.001-.002v-.002l-.001-.003v-.004l-.001-.003v-.002l-.001-.002v-.005l-.001-.003v-.002l-.001-.002v-.005l-.001-.002v-.003l-.001-.002V54.5l-.001-.003v-.004l-.001-.003v-.002l-.001-.003v-.004l-.001-.003v-.002l-.001-.002v-.003l-.001-.002v-.005l-.001-.002v-.003l-.001-.002v-.002l-.001-.003v-.005l-.001-.002v-.002l-.001-.003v-.005l-.001-.002v-.002l-.001-.003v-.002l-.001-.003v-.004l-.001-.003v-.002l-.001-.003v-.002l-.001-.002v-.005l-.001-.003v-.002l-.001-.002v-.003l-.001-.002v-.005l-.001-.002v-.003l-.001-.002v-.005l-.001-.003v-.002l-.001-.002v-.003l-.001-.002v-.005l-.001-.003v-.002l-.001-.002v-.003l-.001-.002v-.003l-.001-.002v-.005l-.001-.003v-.002l-.001-.002v-.003l-.001-.002v-.005l-.001-.003v-.002l-.001-.003v-.002l-.001-.003V54.3l-.001-.003v-.002l-1.97.347Zm.195 1.103-1.97.347c.019.107.035.311.011.643l1.996.14 1.995.142a6.663 6.663 0 0 0-.063-1.62l-1.969.348Zm.037 1.13-.844-1.813-19.67 9.155.844 1.813.844 1.814 19.669-9.155-.843-1.813Zm-19.67 9.155 1.626-1.165c-1.826-2.546-4.194-4.474-7.079-3.966l.347 1.97.347 1.97c.476-.084 1.512.095 3.134 2.357l1.625-1.166Zm-5.106-3.161-.347-1.97c-3.588.633-6.282 4.042-8.423 8.697l1.817.835 1.817.836c2.088-4.54 4.029-6.172 5.483-6.428l-.347-1.97Zm-6.953 7.562-1.831-.803c-2.064 4.704-3.863 10.164-5.404 16.364l1.941.482 1.941.483c1.5-6.034 3.231-11.27 5.185-15.722l-1.832-.804Zm-5.294 16.043-1.941-.482a145.429 145.429 0 0 0-2.549 12.64l1.976.308 1.976.31a141.37 141.37 0 0 1 2.479-12.293l-1.941-.483Zm-2.514 12.466-1.983-.262c-.563 4.267-.91 8.237-1.037 11.909l1.999.068 1.999.069c.121-3.521.455-7.361 1.005-11.522l-1.983-.262Zm-1.021 11.715-1.999-.068c-.126 3.662.004 6.719.427 9.119l1.969-.347 1.97-.348c-.355-2.011-.49-4.757-.368-8.287l-1.999-.069Zm.397 8.704-1.969.347c.592 3.357 1.563 6.112 3.169 7.851l1.469-1.358 1.469-1.357c-.803-.869-1.611-2.674-2.168-5.831l-1.97.348Zm2.669 6.84-1.57 1.24c.678.859 1.527 1.532 2.556 1.919 1.027.386 2.11.438 3.189.248l-.347-1.97-.348-1.969c-.497.088-.84.039-1.088-.054-.247-.092-.525-.276-.823-.653l-1.569 1.239Zm3.828 1.437.347 1.97c2.189-.386 4.164-1.78 5.947-3.751l-1.484-1.341-1.483-1.342c-1.481 1.637-2.713 2.325-3.675 2.495l.348 1.969Zm4.81-3.122 1.528 1.29c1.748-2.068 3.233-4.479 4.467-7.215l-1.823-.822-1.823-.823c-1.102 2.443-2.398 4.529-3.876 6.279l1.527 1.291Zm4.172-6.747 1.797.877c1.369-2.802 2.154-5.572 2.287-8.296l-1.997-.098-1.998-.098c-.102 2.083-.708 4.324-1.886 6.737l1.797.878Zm2.087-7.517-.415 1.957 19.241 4.081.415-1.957.415-1.956-19.241-4.081-.415 1.956Zm19.241 4.081-1.944-.471c-3.025 12.476-7.528 21.882-13.392 28.381l1.484 1.34 1.485 1.34c6.458-7.156 11.19-17.25 14.31-30.119l-1.943-.471Zm-13.852 29.25-1.482-1.343c-5.891 6.5-11.761 10.095-17.589 11.123l.347 1.97.347 1.969c6.988-1.232 13.6-5.47 19.859-12.376l-1.482-1.343Zm20.836 4.774-2-.023-.035 2.988 2.776-1.107-.741-1.858Zm.161-22.124-2-.029v.024l2 .005Zm.346-21.994 1.999.034.001-.024-.001-.025-1.999.015Zm-.238-25.303-2-.004v.027l2-.023Zm-.089-23.542-2-.009v.027l2-.018Zm-.256-24.488-.48-1.942-1.558.386.038 1.604 2-.048Zm25.22-6.234 1.996.127.174-2.724-2.65.655.48 1.942Zm-1.301 23.95-1.998-.091v.012l-.001.013 1.999.066Zm-.615 24.153-2-.035-.047 2.72 2.61-.766-.563-1.919Zm15.294-4.483.563 1.919 1.403-.412.033-1.462-1.999-.045Zm.131-11.234-1.999-.046-.001.023v.023h2Zm-.026-11.206-1.999.049v.008l1.999-.057Zm.029-10.89-1.997-.1-.001.021-.001.022 1.999.057Zm.734-11.502-.666-1.886-1.228.434-.1 1.297 1.994.155Zm11.253-3.447.505 1.935.026-.006.026-.008-.557-1.92Zm9.63-2.51.426 1.954.039-.008.038-.01-.503-1.936Zm3.884-1.01 1.98.279.418-2.969-2.902.754.504 1.936Zm-2.257 34.192 1.999.045-1.999-.046Zm-.29 19.547 1.999.02.001-.007-2-.013Zm-.096 17.888h-2v.009l2-.009Zm.276 20.91 1.999-.039v-.005l-1.999.044Zm.488 21.197.571 1.917 1.469-.437-.041-1.533-1.999.053Zm-24.081 7.171-1.997-.11-.155 2.837 2.723-.81-.571-1.917Zm.252-9.63-2-.046v.053l2-.007Zm.122-9.445-2-.062v.058l2 .004Zm.373-16.312-1.999-.068-.001.018v.019l2 .031Zm.205-14.496 2-.028-.035-2.583-2.492.681.527 1.93Zm-15.034 4.113-.527-1.93-1.423.39-.049 1.474 1.999.066Zm-.121 6.682-2-.01v.044l.001.044 1.999-.078Zm-.169 15.627-1.999-.062-.001.033v.034l2-.005Zm.017 7.47 2 .018v-.022l-2 .004Zm-.466 17.629.741 1.858 1.248-.498.011-1.343-2-.017Zm-23.376 9.321 2 .023c.087-7.494.141-14.875.161-22.142l-2-.005-2-.005c-.02 7.254-.073 14.623-.161 22.106l2 .023Zm.161-22.124 1.999.029c.106-7.382.222-14.712.346-21.989l-1.999-.034-2-.034a7814.3 7814.3 0 0 0-.346 21.999l2 .029Zm.346-21.994 1.999-.015c-.066-8.98-.145-17.418-.237-25.311l-2 .023-2 .023c.092 7.887.171 16.319.238 25.295l2-.015Zm-.238-25.303 2 .003c.014-7.916-.016-15.771-.089-23.564l-2 .019-2 .018c.073 7.778.103 15.618.089 23.52l2 .004Zm-.089-23.542 2 .008a882.257 882.257 0 0 0-.257-24.544l-1.999.048-2 .048c.202 8.504.288 16.647.256 24.431l2 .009Zm-.256-24.488.479 1.942 25.221-6.235-.48-1.941-.48-1.942-25.22 6.234.48 1.942Zm25.22-6.234-1.996-.128a1326.79 1326.79 0 0 0-1.303 23.986l1.998.092 1.998.09c.378-8.287.811-16.258 1.299-23.913l-1.996-.127Zm-1.301 23.95-1.999-.066c-.273 8.29-.478 16.35-.616 24.184l2 .035 2 .035c.137-7.811.341-15.852.614-24.123l-1.999-.066Zm-.615 24.153.563 1.92 15.294-4.484-.563-1.92-.563-1.919-15.294 4.484.563 1.92Zm15.294-4.483 1.999.045c.088-3.82.132-7.58.132-11.279h-4c0 3.667-.044 7.396-.131 11.188l2 .046Zm.131-11.234 2 .046c.087-3.84.079-7.609-.027-11.309l-1.999.057-1.999.057c.103 3.629.112 7.33.026 11.103l1.999.046Zm-.026-11.206 1.999-.048c-.085-3.523-.075-7.118.029-10.785l-1.999-.057-1.999-.057c-.106 3.735-.116 7.4-.029 10.996l1.999-.049Zm.029-10.89 1.998.1c.191-3.807.434-7.623.73-11.448l-1.994-.154-1.994-.155a431.368 431.368 0 0 0-.737 11.556l1.997.1Zm.734-11.502.666 1.885a137.713 137.713 0 0 1 11.092-3.397l-.505-1.935-.506-1.935a141.69 141.69 0 0 0-11.413 3.496l.666 1.886Zm11.253-3.447.557 1.921c3.788-1.098 6.951-1.922 9.499-2.477l-.426-1.954-.426-1.954c-2.667.58-5.924 1.43-9.761 2.543l.557 1.921Zm9.63-2.51.503 1.935.239-.062.117-.03a1.194 1.194 0 0 1 .057-.015l.015-.004a23.09 23.09 0 0 1 .155-.04l.111-.029.028-.007.013-.004c.005 0 .009-.002.014-.003l.014-.004.013-.003.027-.007a13.1 13.1 0 0 0 .107-.028l.789-.205 1.214-.316.728-.19.182-.047.046-.011h.002v-.001h.001l.003-.001h.003l.002-.001h.002l.001-.001h.001l-.503-1.936-.504-1.936h-.001l-.001.001h-.001l-.005.002-.007.001-.019.005-.012.004-.007.001-.007.002-.016.004-.018.005c-.007.002-.004 0-.01.003h-.005l-.003.002h-.002l-.003.001h-.003l-.005.002-.011.003-.106.027-.065.017-.035.01c-.005 0-.013.003-.018.004l-.019.005c-.112.03-.044.012-.167.043l-.197.052a5.365 5.365 0 0 0-.054.014l-.056.014-.118.03-.257.068-.141.036-.148.039c-.112.03-.04.01-.155.04l-.163.043-.349.09-.186.049-.193.05-.201.052-.209.055-.44.114-.231.06-.119.03-.12.032.503 1.936Zm3.884-1.01-1.981-.278c-.634 4.507-1.133 9.739-1.501 15.689l1.997.123 1.996.123c.363-5.876.854-11 1.469-15.378l-1.98-.279Zm-1.485 15.534-1.997-.123a484.293 484.293 0 0 0-.775 18.735l2 .045 1.999.046c.149-6.502.405-12.695.769-18.58l-1.996-.123Zm-.772 18.657-2-.045c-.149 6.535-.246 13.062-.29 19.58l2 .013 2 .013c.044-6.495.14-13 .289-19.515l-1.999-.046Zm-.29 19.548-2-.02c-.063 6.407-.095 12.376-.096 17.908h4c.001-5.516.033-11.473.095-17.869l-1.999-.02Zm-.096 17.888-2 .009c.03 6.938.122 13.92.276 20.945l2-.044 1.999-.044c-.153-7.001-.245-13.96-.275-20.875l-2 .01Zm.276 20.91-2 .039c.135 6.913.298 13.983.489 21.211l1.999-.053 1.999-.053c-.19-7.218-.353-14.28-.488-21.183l-1.999.039Zm.488 21.197-.571-1.917-24.081 7.171.571 1.917.571 1.917 24.081-7.171-.571-1.917Zm-24.081 7.171 1.997.109c.182-3.318.267-6.567.255-9.747l-2 .008-2 .007c.011 3.099-.071 6.269-.249 9.513l1.997.11Zm.252-9.63 1.999.045c.075-3.275.116-6.437.123-9.486l-2-.004-2-.004a453.37 453.37 0 0 1-.122 9.403l2 .046Zm.122-9.445 1.999.062c.161-5.239.286-10.686.373-16.344l-1.999-.03-2-.031c-.087 5.638-.211 11.065-.373 16.281l2 .062Zm.373-16.312 1.998.067c.193-5.686.263-10.551.207-14.591l-2 .028-1.999.027c.054 3.956-.014 8.754-.205 14.401l1.999.068Zm.205-14.496-.527-1.93-15.034 4.114.527 1.929.528 1.929 15.034-4.113-.528-1.93Zm-15.034 4.113-1.999-.066c-.069 2.09-.109 4.337-.122 6.738l2 .01 2 .01c.012-2.368.053-4.577.12-6.626l-1.999-.066Zm-.121 6.682-1.999.078c.091 2.32.106 4.821.045 7.505l1.999.045 2 .046c.063-2.754.048-5.338-.047-7.752l-1.998.078Zm.045 7.628-1.999-.045c-.062 2.713-.134 5.374-.214 7.982l1.999.062 1.999.062c.081-2.62.152-5.291.215-8.015l-2-.046Zm-.214 7.999-2 .005.017 7.47 2-.005 2-.004-.017-7.471-2 .005Zm.017 7.47-2-.017c-.024 2.905-.102 5.82-.231 8.744l1.998.088 1.998.088c.132-2.971.21-5.933.235-8.885l-2-.018Zm-.233 8.815-1.998-.088a249.58 249.58 0 0 0-.234 8.885l1.999.017 2 .017c.025-2.905.102-5.819.231-8.743l-1.998-.088Zm-.233 8.814-.74-1.858-23.377 9.321.741 1.858.741 1.858 23.376-9.321-.741-1.858Z"/>
  </g>
  <defs>
    <linearGradient id="b" x1="194.992" x2="224.512" y1="31.382" y2="198.8" gradientUnits="userSpaceOnUse">
      <stop offset=".125" stop-color="#FFE1E2"/>
      <stop offset=".736" stop-color="#FB6E71"/>
    </linearGradient>
    <clipPath id="a">
      <path fill="#fff" d="M0 0h430v220H0z"/>
    </clipPath>
  </defs>
</svg>
